<?xml version="1.0" encoding="utf-8"?>
<!-- Generator: Adobe Illustrator 15.0.2, SVG Export Plug-In  -->
<!DOCTYPE svg PUBLIC "-//W3C//DTD SVG 1.1//EN" "http://www.w3.org/Graphics/SVG/1.1/DTD/svg11.dtd" [
	<!ENTITY ns_flows "http://ns.adobe.com/Flows/1.0/">
]>
<svg version="1.1"
	 xmlns="http://www.w3.org/2000/svg" xmlns:xlink="http://www.w3.org/1999/xlink" xmlns:a="http://ns.adobe.com/AdobeSVGViewerExtensions/3.0/"
	 x="0px" y="0px" width="567px" height="439px" viewBox="0 0 567 439" overflow="visible" enable-background="new 0 0 567 439"
	 xml:space="preserve">
<defs>
</defs>
<radialGradient id="SVGID_1_" cx="348.6504" cy="155.498" r="318.4631" gradientTransform="matrix(1 0 0 -1 -76 374)" gradientUnits="userSpaceOnUse">
	<stop  offset="0" style="stop-color:#FFFFFF;stop-opacity:0.3"/>
	<stop  offset="1" style="stop-color:#FFFFFF;stop-opacity:0"/>
</radialGradient>
<polygon opacity="0.7" fill="url(#SVGID_1_)" enable-background="new    " points="564.114,210.623 318.938,216.664 
	564.114,177.581 564.114,144.37 317.579,206.767 564.114,113.806 564.114,76.335 308.573,196.753 564.114,22.377 564.114,0 
	521.43,0 303.241,191.541 465.137,0 412.762,0 298.831,179.489 366.129,0 327.486,0 285.383,178.935 304.463,0 264.4,0 
	273.664,170.691 235.552,0 195.84,0 259.909,174.636 150.617,0 99.035,0 260.171,186.288 43.304,0 0,0 0,21.539 254.086,194.409 
	0,75.031 0,112.084 243.432,200.999 0,142.395 0,175.524 243.717,214.259 0,208.272 0,235.486 234.369,224.066 0,258.294 0,291.287 
	239.312,233.13 0,321.652 0,358.872 254.085,239.139 0,412.523 0,437.004 39.921,437.004 249.283,258.818 96.567,437.004 
	148.995,437.004 260.732,261.965 196.064,437.004 234.819,437.004 272.267,262.788 258.093,437.004 298.316,437.004 
	288.995,265.202 327.354,437.004 365.75,437.004 297.807,261.141 412.383,437.004 464.598,437.004 305.221,251.255 520.889,437.004 
	564.114,437.004 564.114,415.344 308.568,241.482 564.114,361.545 564.114,324.463 326.641,239.721 564.114,293.992 
	564.114,261.012 331.584,230.658 564.114,238.432 "/>
</svg>
