<?xml version="1.0" encoding="utf-8"?>
<!-- Generator: Adobe Illustrator 17.0.2, SVG Export Plug-In . SVG Version: 6.00 Build 0)  -->
<!DOCTYPE svg PUBLIC "-//W3C//DTD SVG 1.1//EN" "http://www.w3.org/Graphics/SVG/1.1/DTD/svg11.dtd">
<svg version="1.1" id="Layer_1" xmlns="http://www.w3.org/2000/svg" xmlns:xlink="http://www.w3.org/1999/xlink" x="0px" y="0px"
	 width="497.332px" height="93.624px" viewBox="0 0 497.332 93.624" enable-background="new 0 0 497.332 93.624"
	 xml:space="preserve">
<path fill="#043D05" d="M192.584-99.284l5.933,5.934l1.29-1.29l-5.933-5.934L192.584-99.284z M190.161-92.474l1.544,1.549
	l4.593-4.231l-1.907-1.911L190.161-92.474z M208.154-98.785l-4.169-4.103l8.95-9.095l1.553-3.272l-3.271,1.552l-9.109,8.966
	l-9.112-8.966l-3.271-1.552l1.553,3.272l8.948,9.095l-4.165,4.103l1.96,1.96l4.088-4.153l4.085,4.153L208.154-98.785z
	 M207.91-95.156l4.596,4.231l1.549-1.549l-4.234-4.594L207.91-95.156z M210.338-100.574l-5.936,5.934l1.291,1.29l5.934-5.934
	L210.338-100.574z"/>
<g>
	<path fill="#043D05" d="M76.488-111.007c-0.264-0.456-1.248-0.684-2.952-0.684c-2.232,0-3.924,0.756-5.076,2.268
		c-1.152,1.512-1.728,3.696-1.728,6.552c0,5.928,2.22,8.892,6.66,8.892c0.072,0,0.39,0,0.954,0c0.563,0,1.098-0.078,1.602-0.234
		c0.504-0.156,0.804-0.318,0.9-0.486c0.096-0.168,0.144-0.432,0.144-0.792v-2.88l3.672,0.252v6.228
		c-1.872,0.984-4.248,1.476-7.128,1.476c-3.672,0-6.475-1.031-8.406-3.096c-1.932-2.064-2.898-5.136-2.898-9.216
		c0-2.255,0.324-4.224,0.972-5.904c0.648-1.68,1.524-2.988,2.628-3.924c2.16-1.8,4.727-2.7,7.704-2.7
		c2.399,0,4.656,0.492,6.768,1.476v6.12l-3.672,0.252v-2.808C76.632-110.575,76.584-110.839,76.488-111.007z"/>
	<path fill="#043D05" d="M84.912-94.915l5.796-16.776l-2.267-0.216v-2.916h8.244l7.344,20.772h0.035l2.053,0.108v3.06h-9.289v-2.916
		l1.369-0.108c0.407-0.048,0.684-0.144,0.828-0.288c0.143-0.144,0.155-0.408,0.035-0.792l-0.756-2.232H89.88l-1.08,3.168l2.16,0.108
		v3.06h-8.316v-2.916l1.188-0.108C84.336-93.955,84.697-94.291,84.912-94.915z M94.092-110.791l-3.348,10.26h6.696l-3.24-10.26
		H94.092z"/>
	<path fill="#043D05" d="M114.972-94.123c2.88,0,4.32-1.152,4.32-3.456c0-1.2-0.637-2.088-1.908-2.664
		c-0.672-0.336-1.543-0.648-2.61-0.936c-1.068-0.288-1.956-0.582-2.664-0.882c-0.708-0.3-1.422-0.713-2.142-1.242
		c-1.416-1.056-2.125-2.682-2.125-4.878c0-2.196,0.762-3.924,2.287-5.184c1.523-1.26,3.516-1.89,5.976-1.89
		c2.46,0,4.745,0.492,6.858,1.476v5.4l-3.672,0.252v-2.088c0-0.36-0.049-0.624-0.145-0.792c-0.265-0.456-1.11-0.684-2.538-0.684
		c-1.429,0-2.483,0.252-3.168,0.756c-0.685,0.504-1.026,1.284-1.026,2.34c0,0.768,0.289,1.44,0.864,2.016
		c0.384,0.384,0.954,0.702,1.71,0.954s1.561,0.51,2.412,0.774c0.852,0.264,1.607,0.552,2.268,0.864
		c0.66,0.312,1.351,0.744,2.07,1.296c1.464,1.08,2.196,2.749,2.196,5.004c0,2.256-0.81,4.032-2.431,5.328
		c-1.619,1.296-3.756,1.944-6.408,1.944c-2.651,0-5.033-0.491-7.146-1.476v-5.688l3.673-0.253v2.196c0,0.36,0.047,0.625,0.144,0.792
		c0.095,0.168,0.39,0.33,0.882,0.486C113.142-94.2,113.915-94.123,114.972-94.123z"/>
	<path fill="#043D05" d="M128.471-95.095v-16.56l-2.052-0.108v-3.06h8.712v2.916l-1.189,0.108c-0.695,0.072-1.043,0.456-1.043,1.152
		v16.596l2.051,0.108v3.06h-8.711v-2.916l1.188-0.108c0.36-0.048,0.624-0.15,0.792-0.306
		C128.387-94.369,128.471-94.663,128.471-95.095z"/>
	<path fill="#043D05" d="M137.291-90.883v-2.916l1.296-0.108c0.624-0.048,0.936-0.384,0.936-1.008v-16.74l-2.052-0.108v-3.06h6.479
		l10.189,16.524h0.072v-13.356l-2.376-0.108v-3.06h8.784v2.916l-1.297,0.108c-0.575,0.048-0.863,0.42-0.863,1.116v19.8h-4.212
		l-10.404-16.776h-0.072v13.608l2.34,0.108v3.06H137.291z"/>
	<path fill="#043D05" d="M173.598-115.255c2.844,0,5.226,1.008,7.145,3.024c1.92,2.016,2.88,5.094,2.88,9.234
		c0,4.14-0.954,7.272-2.862,9.396c-1.907,2.124-4.487,3.186-7.739,3.186c-3.253,0-5.803-1.056-7.65-3.168
		c-1.849-2.111-2.771-5.184-2.771-9.216c0-2.208,0.323-4.146,0.972-5.814c0.647-1.668,1.5-2.957,2.556-3.87
		C168.263-114.331,170.753-115.255,173.598-115.255z M167.1-102.979c0,5.953,2.064,8.928,6.192,8.928
		c2.208,0,3.756-0.912,4.645-2.736c0.815-1.608,1.224-3.576,1.224-5.904c0-2.088-0.36-4.008-1.08-5.76
		c-0.408-0.96-1.026-1.716-1.854-2.268c-0.828-0.552-1.902-0.828-3.223-0.828s-2.454,0.432-3.401,1.296
		c-0.949,0.864-1.603,1.908-1.962,3.132C167.28-105.895,167.1-104.515,167.1-102.979z"/>
</g>
<g>
	<path fill="#043D05" d="M253.132-111.844l-1.182,0.107c-0.62,0.048-1.016,0.478-1.182,1.289l-4.514,19.523h-4.907l-3.762-15.94
		h-0.107l-3.653,15.94h-5.052l-4.943-20.669l-2.041-0.107v-3.045h8.884v2.901l-1.183,0.107c-0.741,0.072-1.11,0.382-1.11,0.932
		c0,0.096,0.012,0.203,0.036,0.322l3.116,13.827h0.143l3.726-16.191h4.621l3.868,16.263h0.071l3.045-14.973l-1.935-0.143v-3.045
		h8.06V-111.844z"/>
	<path fill="#043D05" d="M252.882-94.937l5.768-16.693l-2.258-0.215v-2.901h8.203l7.309,20.669h0.034l2.043,0.107v3.045h-9.242
		v-2.902l1.361-0.107c0.405-0.047,0.681-0.143,0.824-0.287c0.142-0.143,0.154-0.406,0.034-0.788l-0.751-2.221h-8.383l-1.074,3.153
		l2.15,0.107v3.045h-8.274v-2.902l1.183-0.107C252.31-93.981,252.667-94.315,252.882-94.937z M262.017-110.734l-3.332,10.21h6.662
		l-3.223-10.21H262.017z"/>
	<path fill="#043D05" d="M275.305-90.925v-2.902l1.182-0.107c0.692-0.071,1.04-0.405,1.04-1.002v-16.657l-2.043-0.107v-3.045h9.779
		c2.77,0,4.895,0.514,6.377,1.54c1.48,1.027,2.222,2.711,2.222,5.05c0,1.624-0.426,2.962-1.273,4.012
		c-0.849,1.051-1.856,1.815-3.026,2.293c0.859,0.311,1.54,1.039,2.041,2.185l2.58,5.624l2.043,0.071v3.045h-8.85v-2.902l1.04-0.107
		c0.549-0.071,0.823-0.287,0.823-0.644c0-0.144-0.048-0.311-0.144-0.502l-1.683-3.582c-0.265-0.597-0.556-1.021-0.878-1.271
		c-0.322-0.251-0.782-0.376-1.379-0.376h-3.261v6.233l2.329,0.107v3.045H275.305z M281.896-103.713h3.116
		c2.938,0,4.406-1.313,4.406-3.94c0-1.504-0.387-2.483-1.165-2.937c-0.775-0.453-2.022-0.681-3.742-0.681h-2.615V-103.713z"/>
</g>
<g>
	<path fill="#FEBA00" d="M100.134-63.263v-8.494h-1.459c-0.287,0-0.43,0.193-0.43,0.58v0.879l-1.909-0.131v-3.181h9.786v3.181
		l-1.909,0.131v-0.879c0-0.212-0.031-0.361-0.093-0.449c-0.063-0.087-0.212-0.13-0.449-0.13h-1.273v8.943l1.479,0.056v1.59H98.6
		v-1.516l0.992-0.056C99.953-62.777,100.134-62.952,100.134-63.263z"/>
	<path fill="#FEBA00" d="M108.16-63.357v-8.606l-1.066-0.056v-1.59h4.527v1.516l-0.618,0.056c-0.361,0.037-0.542,0.237-0.542,0.599
		v8.625l1.066,0.056v1.59H107v-1.516l0.618-0.056c0.186-0.025,0.324-0.078,0.411-0.159C108.116-62.98,108.16-63.132,108.16-63.357z"
		/>
	<path fill="#FEBA00" d="M121.668-61.168h-8.887v-1.516l0.618-0.056c0.362-0.037,0.543-0.212,0.543-0.523v-8.7l-1.067-0.056v-1.59
		h8.569v3.106l-1.908,0.131v-0.749c0-0.212-0.031-0.362-0.094-0.449c-0.062-0.087-0.212-0.131-0.449-0.131h-2.769v3.199h4.322v1.909
		h-4.322v3.498h3.013c0.224,0,0.367-0.047,0.43-0.14c0.062-0.094,0.094-0.246,0.094-0.459v-0.935l1.908,0.131V-61.168z"/>
	<path fill="#FEBA00" d="M126.888-73.61h5.276c2.694,0,4.041,1.042,4.041,3.125c0,1.147-0.574,2.021-1.721,2.62
		c0.736,0.187,1.312,0.53,1.73,1.029c0.418,0.498,0.627,1.147,0.627,1.946c0,1.21-0.409,2.133-1.226,2.768
		c-0.817,0.636-2.005,0.955-3.564,0.955h-5.257v-1.516l0.617-0.056c0.361-0.037,0.542-0.212,0.542-0.523v-8.7l-1.066-0.056V-73.61z
		 M130.237-71.889v3.386h1.385c0.773,0,1.344-0.159,1.712-0.477c0.368-0.318,0.552-0.764,0.552-1.337s-0.184-0.979-0.552-1.216
		c-0.368-0.237-0.895-0.355-1.581-0.355H130.237z M130.237-66.837v3.911h1.759c1.622,0,2.433-0.662,2.433-1.984
		c0-0.623-0.203-1.1-0.608-1.431c-0.405-0.33-0.982-0.496-1.731-0.496H130.237z"/>
	<path fill="#FEBA00" d="M146.945-61.168h-8.887v-1.516l0.617-0.056c0.362-0.037,0.543-0.212,0.543-0.523v-8.7l-1.067-0.056v-1.59
		h8.569v3.106l-1.908,0.131v-0.749c0-0.212-0.031-0.362-0.094-0.449c-0.062-0.087-0.212-0.131-0.448-0.131h-2.77v3.199h4.323v1.909
		H141.5v3.498h3.013c0.224,0,0.367-0.047,0.43-0.14c0.062-0.094,0.094-0.246,0.094-0.459v-0.935l1.908,0.131V-61.168z"/>
	<path fill="#FEBA00" d="M151.772-63.263v-8.494h-1.46c-0.287,0-0.43,0.193-0.43,0.58v0.879l-1.908-0.131v-3.181h9.785v3.181
		l-1.909,0.131v-0.879c0-0.212-0.03-0.361-0.093-0.449c-0.062-0.087-0.213-0.13-0.45-0.13h-1.272v8.943l1.479,0.056v1.59h-5.276
		v-1.516l0.991-0.056C151.59-62.777,151.772-62.952,151.772-63.263z"/>
	<path fill="#FEBA00" d="M178.246-72.094l-0.618,0.056c-0.324,0.025-0.53,0.25-0.616,0.673l-2.359,10.197h-2.562l-1.964-8.326
		h-0.056l-1.91,8.326h-2.638l-2.582-10.795l-1.066-0.056v-1.59h4.641v1.516l-0.617,0.056c-0.388,0.037-0.581,0.199-0.581,0.486
		c0,0.05,0.007,0.106,0.02,0.169l1.628,7.222h0.074l1.946-8.457h2.413l2.02,8.494h0.038l1.59-7.821l-1.01-0.075v-1.59h4.21V-72.094z
		"/>
	<path fill="#FEBA00" d="M180.098-63.357v-8.606l-1.066-0.056v-1.59h4.527v1.516l-0.617,0.056c-0.362,0.037-0.543,0.237-0.543,0.599
		v8.625l1.066,0.056v1.59h-4.527v-1.516l0.617-0.056c0.186-0.025,0.324-0.078,0.412-0.159
		C180.054-62.98,180.098-63.132,180.098-63.357z"/>
	<path fill="#FEBA00" d="M184.681-61.168v-1.516l0.674-0.056c0.324-0.025,0.486-0.199,0.486-0.523v-8.7l-1.066-0.056v-1.59h3.368
		l5.295,8.588h0.037v-6.941l-1.234-0.056v-1.59h4.565v1.516l-0.674,0.056c-0.299,0.025-0.45,0.218-0.45,0.58v10.291h-2.188
		l-5.408-8.719h-0.037v7.072l1.217,0.056v1.59H184.681z"/>
	<path fill="#FEBA00" d="M201.595-62.852c1.496,0,2.245-0.599,2.245-1.796c0-0.624-0.331-1.085-0.992-1.385
		c-0.349-0.174-0.802-0.336-1.356-0.486c-0.556-0.15-1.018-0.302-1.385-0.459c-0.368-0.156-0.74-0.371-1.113-0.645
		c-0.736-0.549-1.103-1.394-1.103-2.536c0-1.141,0.395-2.039,1.186-2.694c0.793-0.655,1.828-0.982,3.106-0.982
		c1.278,0,2.467,0.255,3.564,0.767v2.807l-1.908,0.131v-1.085c0-0.187-0.025-0.324-0.075-0.412
		c-0.138-0.236-0.577-0.355-1.318-0.355c-0.743,0-1.291,0.131-1.647,0.393c-0.355,0.262-0.532,0.668-0.532,1.216
		c0,0.399,0.15,0.748,0.448,1.048c0.2,0.2,0.496,0.364,0.889,0.496c0.393,0.131,0.81,0.265,1.254,0.402
		c0.442,0.137,0.835,0.287,1.179,0.449c0.342,0.162,0.702,0.386,1.075,0.673c0.761,0.561,1.142,1.428,1.142,2.601
		s-0.421,2.095-1.263,2.769c-0.843,0.673-1.952,1.01-3.33,1.01c-1.379,0-2.616-0.256-3.715-0.767v-2.956l1.909-0.131v1.141
		c0,0.187,0.025,0.324,0.075,0.412c0.05,0.087,0.203,0.171,0.458,0.253C200.643-62.893,201.046-62.852,201.595-62.852z"/>
	<path fill="#FEBA00" d="M214.429-63.432v-7.353l-2.188,1.123l-0.824-1.441l3.405-2.114h1.834v10.365l1.946,0.094v1.59h-6.512
		v-1.534l1.796-0.112c0.188-0.013,0.324-0.062,0.412-0.15C214.384-63.051,214.429-63.208,214.429-63.432z"/>
	<path fill="#FEBA00" d="M224.177-73.46c2.831,0,4.245,2.052,4.245,6.156c0,2.183-0.367,3.782-1.103,4.799
		c-0.736,1.017-1.828,1.525-3.274,1.525c-1.447,0-2.526-0.502-3.237-1.506c-0.711-1.004-1.066-2.566-1.066-4.687
		c0-2.12,0.392-3.698,1.178-4.733C221.707-72.942,222.791-73.46,224.177-73.46z M222.538-63.74c0.355,0.642,0.87,0.963,1.544,0.963
		c0.674,0,1.193-0.33,1.562-0.992c0.367-0.662,0.552-1.812,0.552-3.452c0-1.64-0.178-2.784-0.534-3.433
		c-0.354-0.648-0.875-0.973-1.561-0.973c-0.686,0-1.207,0.346-1.562,1.039c-0.355,0.692-0.532,1.846-0.532,3.461
		C222.006-65.512,222.183-64.383,222.538-63.74z"/>
	<path fill="#FEBA00" d="M235.898-62.74v-6.371h-1.096c-0.214,0-0.321,0.145-0.321,0.435v0.659l-1.433-0.098V-70.5h7.339v2.386
		l-1.431,0.098v-0.659c0-0.159-0.023-0.271-0.07-0.337c-0.047-0.065-0.159-0.098-0.337-0.098h-0.954v6.708l1.109,0.042v1.192h-3.958
		v-1.137l0.744-0.042C235.762-62.375,235.898-62.506,235.898-62.74z"/>
	<path fill="#FEBA00" d="M245.025-70.668c1.109,0,2.038,0.393,2.786,1.178c0.748,0.786,1.122,1.985,1.122,3.599
		c0,1.614-0.371,2.835-1.115,3.663c-0.744,0.828-1.75,1.242-3.017,1.242c-1.268,0-2.262-0.411-2.982-1.235
		c-0.72-0.823-1.08-2.021-1.08-3.592c0-0.861,0.126-1.616,0.379-2.267c0.253-0.65,0.585-1.152,0.996-1.508
		C242.946-70.308,243.917-70.668,245.025-70.668z M242.492-65.883c0,2.32,0.805,3.48,2.413,3.48c0.861,0,1.465-0.355,1.81-1.066
		c0.319-0.627,0.479-1.394,0.479-2.301c0-0.814-0.141-1.562-0.421-2.246c-0.159-0.374-0.4-0.668-0.723-0.884
		c-0.323-0.215-0.741-0.322-1.257-0.322c-0.515,0-0.956,0.168-1.326,0.504c-0.369,0.337-0.624,0.744-0.764,1.221
		C242.563-67.02,242.492-66.481,242.492-65.883z"/>
	<path fill="#FEBA00" d="M257.072-63.432v-7.353l-2.189,1.123l-0.823-1.441l3.404-2.114h1.834v10.365l1.946,0.094v1.59h-6.511
		v-1.534l1.796-0.112c0.187-0.013,0.324-0.062,0.411-0.15C257.028-63.051,257.072-63.208,257.072-63.432z"/>
</g>
<rect x="409.218" y="-96.172" fill="none" width="289.204" height="60.676"/>
<text transform="matrix(1 0 0 1 409.2184 -79.0598)"><tspan x="0" y="0" fill="#FEBA00" font-family="'BreeSerif-Regular'" font-size="24">TIE BET WINS 10 </tspan><tspan x="175.701" y="0" fill="#FEBA00" font-family="'BreeSerif-Regular'" font-size="18">TO</tspan><tspan x="197.607" y="0" fill="#FEBA00" font-family="'BreeSerif-Regular'" font-size="24"> 1</tspan></text>
<g>
	<path fill="#043D05" d="M110.32-210.005c2.588,2.283,3.9,3.414,6.562,5.653c0.525-0.544,0.787-0.817,1.309-1.363
		c-2.661-2.23-3.973-3.356-6.561-5.63C111.107-210.808,110.846-210.54,110.32-210.005z M107.961-203.114
		c0.681,0.6,1.025,0.9,1.711,1.497c1.922-1.758,2.872-2.643,4.752-4.423c-0.848-0.727-1.27-1.092-2.109-1.823
		C110.595-205.955,109.723-205.004,107.961-203.114z M126.766-210.436c-1.885-1.5-2.818-2.256-4.668-3.778
		c3.497-3.878,5.201-5.836,8.518-9.789c0.515-1.361,0.77-2.042,1.273-3.404c-1.262,0.743-1.896,1.111-3.17,1.844
		c-3.388,3.891-5.126,5.817-8.693,9.629c-4.007-3.348-5.968-5.049-9.804-8.497c-1.353-0.571-2.028-0.859-3.37-1.442
		c0.665,1.291,1.002,1.935,1.678,3.223c3.771,3.519,5.699,5.255,9.641,8.678c-1.648,1.736-2.48,2.599-4.165,4.318
		c0.863,0.746,1.297,1.118,2.168,1.859c1.651-1.746,2.467-2.624,4.081-4.387c1.816,1.553,2.734,2.326,4.585,3.857
		C125.615-209.167,125.999-209.589,126.766-210.436z M126.788-206.798c2.086,1.537,3.14,2.3,5.265,3.81
		c0.61-0.676,0.914-1.017,1.519-1.695c-1.983-1.66-2.966-2.497-4.909-4.181C127.917-208.036,127.542-207.623,126.788-206.798z
		 M128.921-212.404c-2.293,2.573-3.46,3.851-5.831,6.39c0.585,0.478,0.878,0.716,1.467,1.192c2.37-2.547,3.535-3.83,5.827-6.412
		C129.796-211.701,129.505-211.936,128.921-212.404z"/>
	<g>
		<path fill="#043D05" d="M-7.962-235.926c-0.136-0.511-1.054-1.007-2.743-1.499c-2.212-0.645-4.099-0.427-5.687,0.667
			c-1.588,1.095-2.816,3-3.666,5.726c-1.763,5.66-0.357,9.224,4.248,10.567c0.074,0.021,0.404,0.119,0.99,0.288
			c0.585,0.169,1.16,0.253,1.726,0.252c0.566-0.001,0.921-0.069,1.066-0.203c0.144-0.133,0.265-0.375,0.363-0.721
			c0.312-1.109,0.468-1.663,0.78-2.772c1.482,0.521,2.225,0.78,3.712,1.287c-0.651,2.405-0.977,3.606-1.627,6.011
			c-2.217,0.42-4.846,0.202-7.859-0.676c-3.842-1.12-6.467-3.017-7.839-5.616c-1.373-2.599-1.403-5.843-0.142-9.724
			c0.697-2.145,1.631-3.911,2.789-5.303c1.158-1.392,2.423-2.37,3.787-2.913c2.65-1.056,5.434-1.144,8.356-0.292
			c2.356,0.687,4.439,1.782,6.271,3.3c-0.642,2.362-0.963,3.544-1.605,5.906c-1.503-0.304-2.254-0.461-3.756-0.78
			c0.305-1.081,0.458-1.621,0.763-2.702C-7.937-235.47-7.912-235.739-7.962-235.926z"/>
		<path fill="#043D05" d="M-3.591-218.073c4.093-5.873,6.09-8.834,9.986-14.796c-0.887-0.303-1.33-0.457-2.215-0.765
			c0.281-1.132,0.422-1.697,0.703-2.829c3.268,0.812,4.906,1.199,8.187,1.937c1.1,8.764,1.731,13.149,3.161,21.921
			c0.015,0.003,0.022,0.004,0.037,0.007c0.856,0.219,1.284,0.327,2.141,0.541c-0.238,1.201-0.356,1.802-0.594,3.002
			c-3.946-0.783-5.916-1.199-9.847-2.081c0.255-1.138,0.383-1.707,0.639-2.845c0.584,0.087,0.876,0.129,1.461,0.214
			c0.438,0.048,0.75,0.018,0.932-0.09c0.182-0.108,0.25-0.364,0.207-0.767c-0.126-0.941-0.189-1.412-0.312-2.354
			c-3.511-0.773-5.264-1.18-8.761-2.034c-0.749,1.122-1.125,1.683-1.881,2.802c0.893,0.265,1.34,0.395,2.234,0.655
			c-0.287,1.19-0.431,1.785-0.718,2.975c-3.509-0.846-5.26-1.289-8.754-2.215c0.299-1.127,0.448-1.691,0.746-2.818
			c0.506,0.089,0.761,0.133,1.268,0.221C-4.432-217.299-3.971-217.527-3.591-218.073z M9.58-231.189
			c-2.273,3.686-3.428,5.521-5.77,9.176c2.758,0.667,4.139,0.987,6.905,1.603c-0.446-4.304-0.653-6.454-1.027-10.754
			C9.644-231.173,9.624-231.178,9.58-231.189z"/>
		<path fill="#043D05" d="M27.791-210.493c3.044,0.529,4.753-0.373,5.121-2.646c0.192-1.185-0.369-2.159-1.562-2.956
			c-0.641-0.428-1.5-0.91-2.559-1.387c-1.06-0.477-1.926-0.931-2.605-1.36c-0.679-0.428-1.348-0.972-1.987-1.63
			c-1.265-1.302-1.68-3.05-1.263-5.206c0.417-2.156,1.518-3.701,3.281-4.652c1.762-0.951,3.862-1.208,6.326-0.788
			c2.464,0.42,4.674,1.271,6.656,2.567c-0.324,2.136-0.487,3.203-0.811,5.339c-1.516-0.128-2.273-0.196-3.79-0.339
			c0.133-0.824,0.2-1.236,0.333-2.061c0.058-0.355,0.051-0.625-0.02-0.806c-0.192-0.492-1.014-0.856-2.458-1.1
			c-1.445-0.245-2.553-0.185-3.334,0.188c-0.781,0.373-1.268,1.077-1.456,2.116c-0.137,0.756,0.04,1.471,0.527,2.144
			c0.325,0.448,0.854,0.864,1.587,1.247c0.733,0.383,1.516,0.78,2.349,1.187c0.833,0.407,1.566,0.817,2.198,1.234
			c0.632,0.417,1.279,0.97,1.941,1.619c1.328,1.303,1.873,3.065,1.541,5.296c-0.333,2.232-1.451,3.862-3.374,4.874
			c-1.922,1.011-4.314,1.287-7.144,0.796c-2.829-0.491-5.28-1.445-7.333-2.845c0.432-2.234,0.647-3.351,1.079-5.585
			c1.555,0.198,2.332,0.293,3.887,0.475c-0.158,0.864-0.237,1.295-0.396,2.16c-0.065,0.354-0.062,0.626,0.009,0.808
			c0.07,0.182,0.352,0.399,0.844,0.646C25.871-210.91,26.675-210.688,27.791-210.493z"/>
		<path fill="#043D05" d="M42.225-209.238c0.897-6.563,1.345-9.845,2.242-16.408c-0.827-0.157-1.241-0.235-2.067-0.396
			c0.172-1.212,0.258-1.818,0.431-3.03c3.506,0.499,5.261,0.727,8.775,1.144c-0.137,1.158-0.206,1.738-0.343,2.896
			c-0.488-0.014-0.733-0.021-1.221-0.038c-0.715-0.015-1.116,0.323-1.202,1.013c-0.821,6.587-1.231,9.881-2.052,16.468
			c0.867,0.151,1.3,0.226,2.168,0.373c-0.145,1.215-0.217,1.824-0.362,3.04c-3.735-0.445-5.601-0.689-9.328-1.222
			c0.165-1.155,0.247-1.73,0.412-2.885c0.51,0.029,0.767,0.042,1.277,0.07c0.389,0.006,0.682-0.057,0.882-0.187
			C42.036-208.53,42.166-208.81,42.225-209.238z"/>
		<path fill="#043D05" d="M51.104-203.887c0.13-1.159,0.194-1.738,0.325-2.897c0.557,0.02,0.836,0.028,1.393,0.045
			c0.67,0.025,1.037-0.272,1.104-0.894c0.71-6.658,1.065-9.989,1.775-16.647c-0.83-0.132-1.246-0.198-2.076-0.334
			c0.137-1.216,0.204-1.826,0.341-3.042c2.615,0.293,3.924,0.428,6.542,0.676c3.494,6.97,5.333,10.438,9.193,17.322
			c0.031,0.002,0.045,0.002,0.076,0.004c0.357-5.331,0.536-7.996,0.893-13.326c-0.967-0.108-1.45-0.164-2.416-0.278
			c0.09-1.221,0.135-1.832,0.225-3.053c3.555,0.261,5.333,0.371,8.892,0.548c-0.058,1.165-0.087,1.747-0.146,2.912
			c-0.532,0.017-0.797,0.026-1.329,0.041c-0.59,0.017-0.905,0.372-0.943,1.067c-0.44,7.908-0.659,11.861-1.099,19.769
			c-1.814-0.101-2.721-0.157-4.534-0.278c-4.029-6.995-5.95-10.518-9.599-17.605c-0.03-0.003-0.044-0.003-0.074-0.006
			c-0.516,5.419-0.774,8.127-1.289,13.546c0.993,0.138,1.492,0.205,2.486,0.337c-0.108,1.219-0.163,1.828-0.271,3.047
			C56.782-203.27,54.888-203.46,51.104-203.887z"/>
		<path fill="#043D05" d="M90.527-225.768c2.879,0.043,5.28,1.056,7.248,3.063c1.968,2.008,2.998,5.072,3.047,9.212
			c0.049,4.139-0.919,7.287-2.953,9.419c-2.033,2.132-4.829,3.191-8.337,3.133c-3.509-0.058-6.236-1.205-8.135-3.388
			c-1.898-2.183-2.735-5.298-2.556-9.326c0.098-2.206,0.521-4.126,1.259-5.765c0.736-1.639,1.659-2.893,2.768-3.767
			C85.11-224.957,87.647-225.811,90.527-225.768z M83.551-213.653c-0.193,5.95,1.915,9.013,6.329,9.083
			c2.361,0.038,4.02-0.891,4.977-2.689c0.851-1.599,1.299-3.575,1.299-5.903c0.001-2.088-0.37-4.021-1.112-5.76
			c-0.409-0.958-1.048-1.721-1.891-2.28c-0.844-0.559-1.938-0.846-3.288-0.868c-1.35-0.022-2.517,0.383-3.511,1.222
			c-0.996,0.839-1.7,1.863-2.109,3.074C83.834-216.563,83.6-215.188,83.551-213.653z"/>
	</g>
	<g>
		<path fill="#043D05" d="M171.361-229.773c-0.467,0.138-0.703,0.205-1.171,0.341c-0.615,0.17-0.932,0.668-0.945,1.498
			c-0.339,8.021-0.553,12.035-1.081,20.067c-2.09,0.379-3.136,0.563-5.229,0.915c-2.66-6.019-3.959-9.04-6.494-15.095
			c-0.044,0.007-0.066,0.011-0.11,0.018c-0.509,6.535-0.793,9.804-1.427,16.342c-2.16,0.318-3.24,0.469-5.403,0.758
			c-3.21-7.913-4.762-11.885-7.756-19.853c-0.836,0.057-1.253,0.085-2.087,0.138c-0.138-1.21-0.208-1.815-0.346-3.025
			c3.585-0.41,5.374-0.636,8.952-1.132c0.159,1.149,0.24,1.724,0.399,2.873c-0.474,0.109-0.713,0.163-1.188,0.271
			c-0.742,0.173-1.076,0.53-1.004,1.075c0.013,0.095,0.04,0.201,0.08,0.315c1.995,5.315,3.016,7.965,5.102,13.257
			c0.061-0.008,0.09-0.013,0.15-0.022c0.665-6.635,0.966-9.95,1.501-16.582c1.867-0.283,2.803-0.43,4.667-0.736
			c2.614,6.163,3.953,9.234,6.699,15.357c0.03-0.005,0.046-0.006,0.076-0.012c0.246-6.123,0.345-9.184,0.493-15.301
			c-0.792,0.087-1.185,0.129-1.977,0.212c-0.214-1.199-0.321-1.798-0.535-2.998c3.23-0.576,4.842-0.88,8.061-1.526
			C171.017-231.481,171.132-230.91,171.361-229.773z"/>
		<path fill="#043D05" d="M174.421-213.144c1.116-7.032,1.622-10.549,2.53-17.576c-0.926,0.112-1.387,0.166-2.312,0.272
			c-0.238-1.136-0.358-1.703-0.597-2.839c3.273-0.687,4.907-1.048,8.168-1.808c4.78,7.376,7.249,11.031,12.335,18.271
			c0.015-0.003,0.02-0.005,0.034-0.009c0.864-0.175,1.297-0.264,2.16-0.444c0.307,1.179,0.459,1.769,0.765,2.947
			c-3.887,1.009-5.834,1.49-9.738,2.401c-0.264-1.13-0.396-1.696-0.659-2.826c0.561-0.175,0.841-0.263,1.401-0.44
			c0.414-0.147,0.682-0.31,0.798-0.486c0.116-0.174,0.063-0.433-0.151-0.774c-0.52-0.789-0.779-1.184-1.297-1.974
			c-3.483,0.827-5.227,1.22-8.724,1.967c-0.185,1.329-0.279,1.995-0.472,3.324c0.913-0.149,1.368-0.223,2.281-0.377
			c0.258,1.191,0.387,1.785,0.645,2.976c-3.505,0.76-5.259,1.12-8.776,1.801c-0.221-1.14-0.331-1.71-0.552-2.85
			c0.491-0.139,0.737-0.21,1.228-0.35C174.008-212.088,174.317-212.489,174.421-213.144z M180.531-230.592
			c-0.441,4.286-0.682,6.429-1.197,10.719c2.755-0.596,4.132-0.905,6.879-1.551c-2.263-3.663-3.378-5.503-5.574-9.193
			C180.595-230.607,180.574-230.602,180.531-230.592z"/>
		<path fill="#043D05" d="M198.896-214.692c-0.296-1.123-0.442-1.685-0.738-2.808c0.482-0.171,0.722-0.257,1.203-0.43
			c0.703-0.262,0.978-0.683,0.822-1.259c-1.736-6.433-2.605-9.648-4.341-16.081c-0.824,0.178-1.237,0.266-2.062,0.439
			c-0.311-1.178-0.465-1.767-0.775-2.944c3.866-1.021,5.796-1.556,9.641-2.681c2.724-0.796,4.951-0.946,6.713-0.418
			c1.761,0.527,3.003,1.897,3.712,4.127c0.492,1.548,0.473,2.958-0.065,4.228c-0.539,1.271-2.378,3.136-2.378,3.136
			c0.018,0.055,1.866,0.515,2.717,1.451c1.719,1.821,2.587,2.726,4.334,4.53c0.852-0.241,1.275-0.364,2.126-0.61
			c0.376,1.158,0.563,1.738,0.939,2.896c-3.673,1.193-5.515,1.768-9.208,2.871c-0.332-1.112-0.498-1.669-0.83-2.782
			c0.419-0.17,0.629-0.255,1.047-0.426c0.548-0.24,0.769-0.531,0.666-0.873c-0.042-0.137-0.14-0.282-0.294-0.436
			c-1.11-1.16-1.665-1.742-2.764-2.909c-0.441-0.491-0.859-0.809-1.26-0.952c-0.4-0.143-0.905-0.125-1.515,0.052
			c-1.331,0.389-1.994,0.581-3.328,0.958c0.678,2.399,1.017,3.598,1.694,5.998c0.98-0.232,1.468-0.35,2.446-0.588
			c0.339,1.17,0.508,1.756,0.847,2.926C204.515-216.197,202.644-215.68,198.896-214.692z M202.328-228.886
			c1.264-0.357,1.896-0.538,3.156-0.905c2.973-0.867,4.071-2.586,3.306-5.1c-0.439-1.438-1.107-2.257-2.011-2.459
			c-0.899-0.202-2.199-0.049-3.907,0.446c-1.038,0.301-1.559,0.45-2.599,0.744C201.096-233.25,201.506-231.795,202.328-228.886z"/>
	</g>
	<g>
		<path fill="#FEBA00" d="M5.87-184.343c0.714-3.322,1.073-4.981,1.788-8.303c-0.647-0.139-0.97-0.21-1.616-0.352
			c-0.318-0.07-0.518,0.085-0.601,0.462c-0.076,0.344-0.114,0.516-0.19,0.859c-0.836-0.238-1.255-0.359-2.09-0.602
			c0.28-1.241,0.422-1.86,0.702-3.102c4.307,0.973,6.464,1.43,10.79,2.288c-0.248,1.248-0.37,1.871-0.618,3.119
			c-0.86-0.117-1.291-0.176-2.151-0.298c0.07-0.345,0.106-0.517,0.177-0.861c0.043-0.208,0.038-0.362-0.014-0.462
			c-0.052-0.099-0.21-0.176-0.473-0.23c-0.565-0.116-0.846-0.173-1.41-0.291c-0.731,3.502-1.096,5.252-1.827,8.753
			c0.664,0.162,0.997,0.243,1.662,0.402c-0.128,0.623-0.193,0.934-0.32,1.557c-2.399-0.491-3.597-0.745-5.99-1.271
			c0.13-0.592,0.195-0.887,0.325-1.479c0.453,0.077,0.68,0.114,1.133,0.189C5.564-183.911,5.804-184.039,5.87-184.343z"/>
		<path fill="#FEBA00" d="M14.968-182.584c0.651-3.38,0.977-5.07,1.628-8.451c-0.469-0.113-0.703-0.17-1.172-0.285
			c0.122-0.624,0.183-0.936,0.305-1.561c2.002,0.392,3.004,0.581,5.009,0.948c-0.109,0.596-0.164,0.895-0.274,1.491
			c-0.279-0.028-0.417-0.042-0.695-0.071c-0.408-0.038-0.646,0.121-0.712,0.477c-0.632,3.392-0.947,5.088-1.579,8.48
			c0.48,0.112,0.719,0.168,1.2,0.279c-0.115,0.626-0.173,0.938-0.288,1.563c-2.065-0.378-3.095-0.574-5.157-0.977
			c0.117-0.595,0.175-0.893,0.292-1.487c0.285,0.033,0.426,0.05,0.711,0.083c0.216,0.017,0.382-0.006,0.496-0.067
			C14.846-182.222,14.926-182.362,14.968-182.584z"/>
		<path fill="#FEBA00" d="M29.973-177.752c-4.067-0.632-6.099-0.971-10.153-1.701c0.107-0.597,0.161-0.896,0.268-1.492
			c0.285,0.028,0.427,0.042,0.712,0.07c0.418,0.037,0.654-0.099,0.708-0.406c0.605-3.427,0.909-5.142,1.515-8.569
			c-0.471-0.106-0.706-0.158-1.177-0.265c0.112-0.626,0.168-0.939,0.28-1.565c3.797,0.682,5.7,0.999,9.508,1.593
			c-0.191,1.228-0.288,1.841-0.479,3.068c-0.862-0.081-1.294-0.122-2.156-0.207c0.048-0.295,0.071-0.444,0.119-0.74
			c0.034-0.209,0.024-0.362-0.032-0.46c-0.055-0.097-0.216-0.167-0.48-0.21c-1.235-0.201-1.853-0.305-3.086-0.515
			c-0.215,1.262-0.322,1.893-0.537,3.154c1.941,0.331,2.912,0.489,4.855,0.797c-0.12,0.754-0.18,1.131-0.299,1.885
			c-1.952-0.309-2.928-0.47-4.877-0.802c-0.235,1.379-0.352,2.069-0.586,3.449c1.37,0.233,2.056,0.349,3.427,0.571
			c0.254,0.041,0.424,0.019,0.51-0.062c0.086-0.081,0.146-0.225,0.179-0.435c0.059-0.369,0.09-0.554,0.149-0.923
			c0.857,0.191,1.288,0.285,2.146,0.472C30.281-179.726,30.178-179.068,29.973-177.752z"/>
		<path fill="#FEBA00" d="M37.688-189.186c2.349,0.331,3.524,0.489,5.876,0.787c3.003,0.38,4.387,1.58,4.148,3.649
			c-0.132,1.14-2.247,2.372-2.247,2.372c0,0.045,1.42,0.704,1.837,1.254c0.417,0.55,0.581,1.221,0.491,2.014
			c-0.137,1.202-0.708,2.067-1.718,2.589c-1.01,0.522-2.415,0.675-4.203,0.448c-2.413-0.306-3.619-0.468-6.028-0.809
			c0.085-0.6,0.126-0.9,0.211-1.5c0.285,0.018,0.428,0.028,0.713,0.045c0.417,0.021,0.648-0.126,0.691-0.434
			c0.476-3.447,0.715-5.171,1.192-8.618c-0.474-0.088-0.71-0.133-1.184-0.223C37.555-188.242,37.599-188.556,37.688-189.186z
			 M41.192-186.971c-0.177,1.343-0.267,2.014-0.444,3.357c0.625,0.083,0.937,0.123,1.562,0.203c0.873,0.112,1.536,0.033,1.99-0.231
			c0.454-0.265,0.714-0.682,0.784-1.251c0.069-0.569-0.088-0.996-0.472-1.282c-0.383-0.286-0.958-0.477-1.725-0.575
			C42.209-186.837,41.87-186.881,41.192-186.971z M40.53-181.962c-0.205,1.551-0.307,2.326-0.512,3.877
			c0.804,0.106,1.206,0.158,2.01,0.26c1.853,0.235,2.86-0.313,3.019-1.626c0.075-0.619-0.1-1.12-0.519-1.504
			c-0.42-0.384-1.052-0.628-1.9-0.735C41.788-181.797,41.368-181.851,40.53-181.962z"/>
		<path fill="#FEBA00" d="M58.991-174.246c-4.093-0.354-6.137-0.556-10.223-1.008c0.066-0.603,0.101-0.905,0.167-1.507
			c0.285,0.009,0.427,0.014,0.712,0.022c0.419,0.008,0.645-0.144,0.678-0.454c0.372-3.46,0.559-5.189,0.931-8.649
			c-0.476-0.074-0.714-0.113-1.189-0.188c0.07-0.632,0.104-0.948,0.174-1.58c3.826,0.422,5.74,0.612,9.572,0.946
			c-0.108,1.238-0.162,1.855-0.27,3.093c-0.864-0.023-1.296-0.034-2.161-0.061c0.027-0.298,0.041-0.448,0.068-0.746
			c0.02-0.211-0.001-0.363-0.064-0.457c-0.062-0.093-0.226-0.152-0.491-0.177c-1.244-0.117-1.866-0.177-3.109-0.303
			c-0.129,1.273-0.193,1.909-0.322,3.182c1.955,0.198,2.933,0.291,4.889,0.467c-0.068,0.76-0.103,1.141-0.171,1.901
			c-1.965-0.176-2.948-0.27-4.911-0.469c-0.141,1.392-0.213,2.088-0.354,3.48c1.38,0.14,2.071,0.207,3.452,0.336
			c0.256,0.024,0.426-0.009,0.506-0.095c0.08-0.087,0.13-0.234,0.149-0.446c0.034-0.373,0.051-0.559,0.085-0.932
			c0.867,0.132,1.301,0.197,2.168,0.325C59.164-176.237,59.105-175.573,58.991-174.246z"/>
		<path fill="#FEBA00" d="M64.703-175.892c0.25-3.389,0.375-5.082,0.624-8.471c-0.656-0.048-0.985-0.073-1.642-0.124
			c-0.323-0.025-0.497,0.156-0.527,0.541c-0.027,0.351-0.042,0.525-0.069,0.876c-0.856-0.12-1.285-0.182-2.14-0.306
			c0.106-1.268,0.16-1.9,0.266-3.168c4.377,0.367,6.567,0.52,10.951,0.773c-0.073,1.27-0.11,1.905-0.183,3.175
			c-0.865,0.003-1.297,0.004-2.163,0.002c0.022-0.351,0.035-0.527,0.057-0.878c0.013-0.211-0.012-0.362-0.077-0.454
			c-0.065-0.091-0.231-0.146-0.499-0.163c-0.572-0.037-0.858-0.055-1.43-0.094c-0.241,3.569-0.361,5.353-0.602,8.922
			c0.678,0.068,1.015,0.103,1.693,0.168c-0.04,0.635-0.059,0.952-0.1,1.587c-2.433-0.154-3.649-0.241-6.08-0.43
			c0.047-0.604,0.071-0.906,0.118-1.51c0.457,0.013,0.685,0.019,1.141,0.031C64.459-175.42,64.68-175.581,64.703-175.892z"/>
		<path fill="#FEBA00" d="M95.123-183.566c-0.278,0.022-0.418,0.034-0.696,0.056c-0.365,0.023-0.598,0.247-0.698,0.671
			c-1.088,4.072-1.645,6.105-2.784,10.17c-1.183-0.015-1.774-0.023-2.958-0.046c-0.843-3.347-1.258-5.023-2.066-8.374
			c-0.025-0.001-0.036,0-0.062,0c-0.946,3.308-1.429,4.961-2.409,8.264c-1.218-0.036-1.828-0.056-3.045-0.101
			c-1.034-4.359-1.534-6.542-2.508-10.906c-0.479-0.044-0.718-0.065-1.196-0.11c0.029-0.635,0.044-0.953,0.073-1.588
			c2.079,0.097,3.12,0.138,5.2,0.209c-0.021,0.606-0.031,0.91-0.052,1.516c-0.278,0.013-0.417,0.02-0.695,0.032
			c-0.438,0.021-0.662,0.176-0.672,0.463c-0.002,0.05,0.004,0.105,0.017,0.168c0.627,2.914,0.946,4.371,1.597,7.283
			c0.034,0.001,0.05,0.002,0.084,0.003c1.002-3.352,1.496-5.03,2.463-8.387c1.084,0.03,1.625,0.042,2.71,0.064
			c0.837,3.416,1.266,5.124,2.14,8.536c0.017,0.001,0.025-0.001,0.043,0c0.777-3.117,1.161-4.675,1.912-7.795
			c-0.454-0.035-0.682-0.055-1.136-0.091c0.009-0.636,0.013-0.953,0.022-1.589c1.888,0.026,2.832,0.033,4.72,0.038
			C95.125-184.475,95.124-184.173,95.123-183.566z"/>
		<path fill="#FEBA00" d="M97.227-174.829c-0.008-3.442-0.011-5.164-0.02-8.606c-0.48-0.021-0.721-0.033-1.201-0.056
			c0-0.636,0-0.954,0-1.59c2.03,0.001,3.046-0.004,5.077-0.027c0.007,0.606,0.011,0.909,0.018,1.516
			c-0.277,0.026-0.417,0.038-0.695,0.063c-0.407,0.041-0.609,0.242-0.606,0.604c0.029,3.45,0.045,5.175,0.074,8.625
			c0.491,0.018,0.736,0.027,1.227,0.044c0.007,0.636,0.011,0.954,0.018,1.59c-2.091,0.024-3.136,0.028-5.227,0.027
			c0.001-0.606,0.002-0.909,0.002-1.515c0.284-0.022,0.427-0.033,0.711-0.056c0.214-0.025,0.372-0.078,0.473-0.16
			C97.178-174.45,97.227-174.604,97.227-174.829z"/>
		<path fill="#FEBA00" d="M102.523-172.684c-0.009-0.606-0.014-0.91-0.022-1.516c0.31-0.027,0.464-0.04,0.774-0.067
			c0.372-0.031,0.558-0.21,0.552-0.535c-0.061-3.48-0.093-5.219-0.154-8.698c-0.48-0.014-0.722-0.021-1.202-0.036
			c-0.009-0.636-0.013-0.954-0.022-1.59c1.51-0.023,2.266-0.038,3.776-0.074c2.456,3.377,3.707,5.057,6.26,8.397
			c0.017,0,0.024,0,0.042,0c-0.106-2.775-0.157-4.163-0.263-6.937c-0.556-0.001-0.836-0.002-1.392-0.005
			c-0.022-0.636-0.032-0.953-0.054-1.589c2.047-0.071,3.069-0.113,5.115-0.209c0.028,0.606,0.042,0.908,0.071,1.514
			c-0.302,0.037-0.452,0.054-0.754,0.09c-0.335,0.04-0.498,0.241-0.481,0.603c0.181,4.112,0.271,6.168,0.453,10.281
			c-1.009,0.045-1.513,0.066-2.523,0.104c-2.629-3.39-3.92-5.096-6.449-8.524c-0.017,0.001-0.025,0.001-0.042,0.001
			c0.067,2.828,0.101,4.243,0.168,7.071c0.56,0.009,0.84,0.013,1.4,0.021c0.017,0.636,0.025,0.955,0.042,1.591
			C105.698-172.735,104.64-172.714,102.523-172.684z"/>
		<path fill="#FEBA00" d="M121.937-175.091c1.718-0.103,2.539-0.759,2.46-1.954c-0.041-0.622-0.466-1.048-1.221-1.309
			c-0.404-0.139-0.935-0.279-1.574-0.391c-0.642-0.111-1.177-0.233-1.603-0.366c-0.428-0.132-0.863-0.324-1.299-0.576
			c-0.864-0.499-1.324-1.328-1.381-2.468c-0.057-1.14,0.344-2.058,1.197-2.759c0.855-0.702,1.995-1.093,3.426-1.181
			c1.431-0.088,2.775,0.079,4.041,0.501c0.08,1.12,0.12,1.68,0.199,2.8c-0.857,0.114-1.287,0.168-2.145,0.277
			c-0.028-0.433-0.042-0.649-0.071-1.083c-0.012-0.186-0.049-0.323-0.111-0.406c-0.168-0.225-0.674-0.311-1.507-0.259
			c-0.836,0.052-1.442,0.218-1.828,0.503c-0.385,0.284-0.561,0.7-0.53,1.248c0.022,0.399,0.211,0.738,0.566,1.018
			c0.238,0.186,0.581,0.331,1.034,0.436c0.454,0.104,0.935,0.209,1.446,0.314c0.51,0.105,0.964,0.225,1.365,0.361
			c0.398,0.136,0.825,0.338,1.267,0.588c0.889,0.503,1.398,1.334,1.483,2.503c0.085,1.169-0.33,2.126-1.251,2.865
			c-0.923,0.739-2.181,1.16-3.771,1.256c-1.591,0.096-3.034-0.083-4.325-0.53c-0.059-1.181-0.088-1.771-0.147-2.952
			c0.871-0.096,1.306-0.146,2.177-0.247c0.025,0.456,0.038,0.685,0.063,1.141c0.01,0.187,0.047,0.323,0.109,0.407
			c0.062,0.084,0.243,0.157,0.54,0.222C120.843-175.067,121.307-175.054,121.937-175.091z"/>
		<path fill="#FEBA00" d="M136.609-176.804c-0.277-2.928-0.414-4.392-0.691-7.32c-0.942,0.54-1.415,0.809-2.363,1.344
			c-0.423-0.541-0.633-0.813-1.053-1.355c1.46-0.975,2.185-1.465,3.628-2.452c0.82-0.078,1.23-0.118,2.05-0.2
			c0.415,4.126,0.623,6.188,1.038,10.313c0.896-0.052,1.343-0.079,2.238-0.136c0.067,0.633,0.102,0.948,0.169,1.581
			c-2.995,0.316-4.493,0.462-7.492,0.726c-0.054-0.611-0.081-0.917-0.135-1.528c0.82-0.117,1.229-0.179,2.049-0.3
			c0.214-0.033,0.365-0.096,0.458-0.192C136.594-176.42,136.63-176.581,136.609-176.804z"/>
		<path fill="#FEBA00" d="M146.551-187.96c3.158-0.382,5.003,1.435,5.542,5.503c0.287,2.164,0.081,3.807-0.63,4.924
			c-0.712,1.117-1.904,1.781-3.565,1.982c-1.662,0.2-2.961-0.158-3.887-1.065c-0.926-0.907-1.499-2.416-1.729-4.524
			c-0.23-2.108,0.042-3.724,0.808-4.852C143.857-187.121,145.005-187.773,146.551-187.96z M145.848-178.089
			c0.48,0.59,1.105,0.842,1.876,0.749c0.77-0.093,1.328-0.496,1.666-1.204c0.338-0.708,0.401-1.876,0.195-3.504
			c-0.206-1.626-0.552-2.737-1.03-3.331c-0.478-0.592-1.098-0.844-1.867-0.751c-0.768,0.093-1.312,0.506-1.632,1.24
			c-0.319,0.734-0.387,1.902-0.202,3.507C145.038-179.778,145.368-178.68,145.848-178.089z"/>
		<path fill="#FEBA00" d="M161.228-179.148c-0.385-2.519-0.579-3.779-0.964-6.298c-0.492,0.075-0.741,0.113-1.233,0.187
			c-0.24,0.036-0.338,0.198-0.295,0.485c0.039,0.261,0.059,0.391,0.098,0.652c-0.651,0.058-0.978,0.085-1.629,0.141
			c-0.137-0.944-0.206-1.415-0.343-2.36c3.29-0.477,4.934-0.733,8.216-1.275c0.155,0.941,0.233,1.412,0.389,2.354
			c-0.637,0.145-0.958,0.216-1.596,0.358c-0.042-0.26-0.06-0.39-0.102-0.65c-0.025-0.157-0.071-0.264-0.135-0.32
			c-0.062-0.056-0.195-0.067-0.395-0.035c-0.429,0.069-0.643,0.102-1.071,0.169c0.418,2.65,0.629,3.976,1.047,6.626
			c0.509-0.063,0.762-0.095,1.27-0.159c0.075,0.471,0.114,0.706,0.189,1.177c-1.811,0.29-2.72,0.432-4.532,0.703
			c-0.067-0.45-0.1-0.674-0.167-1.124c0.337-0.068,0.507-0.102,0.844-0.17C161.125-178.764,161.263-178.917,161.228-179.148z"/>
		<path fill="#FEBA00" d="M170.228-188.672c1.238-0.22,2.343-0.023,3.322,0.594c0.979,0.618,1.622,1.715,1.922,3.301
			c0.3,1.586,0.107,2.865-0.588,3.836c-0.694,0.971-1.768,1.59-3.214,1.847c-1.447,0.257-2.653,0.047-3.612-0.627
			c-0.957-0.672-1.564-1.788-1.821-3.338c-0.142-0.849-0.122-1.618,0.055-2.307c0.177-0.689,0.469-1.246,0.869-1.675
			C167.972-187.909,168.992-188.452,170.228-188.672z M168.207-183.462c0.391,2.287,1.504,3.274,3.334,2.949
			c0.979-0.174,1.597-0.659,1.865-1.419c0.239-0.678,0.289-1.471,0.125-2.363c-0.147-0.801-0.438-1.515-0.876-2.122
			c-0.241-0.334-0.57-0.575-0.97-0.722c-0.4-0.146-0.886-0.168-1.463-0.065c-0.576,0.102-1.042,0.355-1.399,0.759
			c-0.357,0.404-0.574,0.854-0.651,1.351C168.095-184.597,168.107-184.051,168.207-183.462z"/>
		<path fill="#FEBA00" d="M185.138-184.206c-0.609-2.877-0.913-4.316-1.522-7.194c-0.879,0.645-1.32,0.966-2.205,1.606
			c-0.483-0.489-0.725-0.733-1.205-1.224c1.344-1.136,2.01-1.707,3.337-2.854c0.81-0.172,1.217-0.26,2.025-0.436
			c0.883,4.051,1.325,6.077,2.208,10.128c0.888-0.155,1.331-0.234,2.219-0.394c0.139,0.621,0.207,0.931,0.346,1.552
			c-2.952,0.659-4.432,0.976-7.392,1.582c-0.123-0.601-0.182-0.9-0.305-1.501c0.805-0.211,1.206-0.318,2.01-0.533
			c0.208-0.057,0.353-0.139,0.433-0.245C185.166-183.823,185.185-183.986,185.138-184.206z"/>
	</g>
	<path fill="#043D05" d="M216.705-209.439c-79.022,22.696-158.934,22.983-238.116,0.855c0.228-0.767,0.341-1.151,0.569-1.917
		c78.798,22.024,158.324,21.735,236.963-0.849C216.355-210.585,216.472-210.204,216.705-209.439z"/>
</g>
<path fill="none" stroke="#043D05" stroke-width="2" stroke-miterlimit="10" d="M269.556-54h-178c-7.18,0-7.18-26,0-26h178
	C276.736-80,276.736-54,269.556-54z"/>
<g>
	<path fill="#043D05" d="M497.332,54.292C335.703,106.75,161.621,106.734,0,54.247c10.965-6.593,21.673-13.408,32.118-20.43
		C26.938,22.583,22.066,11.306,17.501,0C167.79,48.832,329.681,48.832,479.97,0c-5.344,11.395-11.023,22.742-17.039,34.027
		C474.11,41.027,485.58,47.788,497.332,54.292z M11.878,52.77c154.079,47.742,318.995,47.805,473.102,0.19
		c-9.762-5.551-19.323-11.28-28.678-17.178c5.082-9.175,9.938-18.397,14.567-27.655C325.915,52.862,170.815,52.789,25.894,7.909
		c3.994,9.254,8.198,18.483,12.611,27.68C29.813,41.462,20.936,47.192,11.878,52.77z"/>
</g>
<g>
	<g>
		<path fill="#FEBA00" d="M67.974,29.935c4.021,1.038,7.401,3.132,6.259,7.801c-0.569,2.316-2.339,3.595-4.542,4.085
			c2.547,1.347,3.955,3.622,3.202,6.713c-1.107,4.562-5.023,6.193-11.141,4.618c-3.448-0.89-6.891-1.805-10.329-2.746
			c0.257-0.941,0.515-1.882,0.772-2.824c0.412,0.075,0.824,0.15,1.235,0.224c0.641,0.099,1.136,0.008,1.324-0.689
			c1.461-5.409,2.922-10.817,4.383-16.226c-0.669-0.218-1.337-0.437-2.005-0.657c0.27-0.988,0.54-1.976,0.81-2.964
			C61.282,28.184,64.626,29.071,67.974,29.935z M61.793,38.52c0.89,0.234,1.78,0.467,2.67,0.698
			c3.106,0.804,4.726-0.283,5.194-2.139c0.636-2.524-0.977-3.526-3.301-4.128c-0.966-0.25-1.932-0.502-2.897-0.757
			C62.904,34.303,62.349,36.412,61.793,38.52z M59.049,48.936c1.147,0.302,2.294,0.602,3.443,0.898
			c3.593,0.925,5.164-0.365,5.699-2.502c0.588-2.349-0.766-4.027-3.629-4.765c-1.197-0.309-2.393-0.621-3.588-0.936
			C60.332,44.066,59.691,46.501,59.049,48.936z"/>
		<path fill="#FEBA00" d="M73.51,56.085c0.228-0.949,0.457-1.897,0.685-2.846c0.413,0.062,0.826,0.124,1.239,0.185
			c0.642,0.079,1.134-0.027,1.3-0.73c1.294-5.451,2.588-10.902,3.883-16.353c-0.674-0.197-1.348-0.395-2.021-0.594
			c0.239-0.996,0.479-1.992,0.718-2.987c2.87,0.69,5.743,1.363,8.619,2.017c-0.216,0.951-0.433,1.903-0.649,2.854
			c-0.404-0.055-0.807-0.109-1.211-0.165c-0.627-0.069-1.107,0.042-1.302,0.887c-1.209,5.236-2.417,10.471-3.626,15.707
			c2.036,0.47,4.074,0.931,6.113,1.384c0.774,0.172,0.949-0.271,1.096-0.942c0.182-0.823,0.363-1.647,0.545-2.471
			c1.229,0.358,2.459,0.712,3.689,1.063c-0.502,2.332-1.004,4.664-1.506,6.996C85.214,58.828,79.356,57.492,73.51,56.085z"/>
		<path fill="#FEBA00" d="M104.818,41.614c-0.744-0.224-1.487-0.449-2.23-0.675c0.196-0.956,0.391-1.912,0.587-2.868
			c2.743,0.562,5.488,1.107,8.236,1.636c1.133,7.297,2.339,14.596,3.618,21.894c0.012,0.002,0.025,0.005,0.037,0.007
			c0.698,0.163,1.397,0.326,2.096,0.487c-0.18,1.008-0.36,2.016-0.541,3.025c-3.205-0.573-6.408-1.167-9.607-1.783
			c0.184-0.958,0.369-1.916,0.553-2.875c0.476,0.055,0.952,0.109,1.428,0.163c0.792,0.077,1.203-0.067,1.091-0.896
			c-0.12-0.783-0.24-1.566-0.358-2.348c-2.878-0.547-5.753-1.112-8.625-1.694c-0.579,0.964-1.159,1.928-1.741,2.891
			c0.732,0.186,1.465,0.371,2.198,0.555c-0.202,1.004-0.404,2.008-0.606,3.012c-2.861-0.575-5.719-1.167-8.575-1.776
			c0.204-0.954,0.407-1.909,0.611-2.863c0.414,0.051,0.828,0.102,1.242,0.152c0.643,0.062,0.917-0.138,1.316-0.756
			C98.682,51.823,101.772,46.727,104.818,41.614z M102.643,52.604c2.273,0.458,4.548,0.905,6.825,1.34
			c-0.456-3.583-0.896-7.166-1.32-10.748c-0.036-0.007-0.072-0.014-0.108-0.021C106.256,46.324,104.458,49.467,102.643,52.604z"/>
		<path fill="#FEBA00" d="M133.311,46.759c-4.567-0.733-7.395,2.074-8.315,7.457c-0.955,5.589,0.387,9.389,5.583,10.113
			c1.041,0.166,2.026,0.212,2.766,0.108c0.703-0.11,0.859-0.379,0.964-1.057c0.147-0.952,0.295-1.905,0.443-2.857
			c1.245,0.278,2.491,0.553,3.737,0.825c-0.308,2.061-0.616,4.122-0.925,6.183c-2.209,0.731-5.232,0.704-7.625,0.32
			c-7.602-1.221-11.024-6.038-9.578-14.144c1.66-9.286,7.964-11.364,13.516-10.482c2.131,0.341,4.551,1.192,6.575,2.519
			c-0.304,2.025-0.608,4.051-0.912,6.076c-1.255-0.103-2.511-0.21-3.766-0.319c0.144-0.929,0.289-1.857,0.433-2.786
			c0.106-0.679,0.041-0.981-0.58-1.298C134.97,47.095,134.037,46.875,133.311,46.759z"/>
		<path fill="#FEBA00" d="M145.732,48.67c-0.686-0.134-1.372-0.269-2.058-0.404c0.147-1.014,0.294-2.027,0.441-3.041
			c2.896,0.42,5.794,0.822,8.694,1.207c-0.128,0.967-0.257,1.935-0.385,2.902c-0.405-0.017-0.81-0.034-1.215-0.052
			c-0.629-0.011-1.095,0.144-1.212,1.003c-0.357,2.627-0.713,5.253-1.07,7.88c2.908-2.621,5.787-5.259,8.636-7.913
			c-0.676-0.121-1.351-0.243-2.026-0.365c0.13-1.016,0.26-2.032,0.39-3.048c2.829,0.362,5.659,0.708,8.491,1.036
			c-0.112,0.969-0.225,1.939-0.337,2.908c-0.405-0.01-0.811-0.021-1.216-0.032c-0.591,0.004-0.994,0.282-1.578,0.832
			c-1.977,1.874-3.968,3.74-5.974,5.598c1.729,3.754,3.489,7.502,5.283,11.244c0.656,0.114,1.312,0.226,1.968,0.338
			c-0.117,1.017-0.234,2.035-0.352,3.052c-3.202-0.369-6.403-0.759-9.601-1.17c0.124-0.968,0.249-1.936,0.373-2.903
			c0.39,0.014,0.781,0.027,1.171,0.04c0.719,0.018,1.02-0.272,0.705-1.077c-0.973-2.199-1.935-4.4-2.886-6.602
			c-1.25,1.124-2.505,2.245-3.766,3.362c-0.151,1.11-0.302,2.221-0.452,3.331c0.704,0.132,1.408,0.263,2.112,0.392
			c-0.135,1.015-0.27,2.031-0.405,3.046c-2.997-0.398-5.992-0.815-8.985-1.249c0.14-0.966,0.281-1.931,0.421-2.897
			c0.415,0.024,0.83,0.047,1.246,0.07c0.719,0.03,1.121-0.132,1.248-1.027C144.173,59.643,144.952,54.157,145.732,48.67z"/>
		<path fill="#FEBA00" d="M163.755,70.936c0.237-2.095,0.475-4.19,0.712-6.285c1.273,0.059,2.546,0.115,3.818,0.168
			c-0.102,0.946-0.204,1.893-0.307,2.839c-0.074,0.682,0.007,0.982,0.652,1.305c0.575,0.279,1.129,0.411,1.914,0.493
			c2.021,0.21,2.795-0.732,3.022-2.997c0.476-4.735,0.952-9.47,1.428-14.205c-0.945-0.143-1.889-0.288-2.833-0.435
			c0.106-1.019,0.213-2.037,0.32-3.056c3.174,0.332,6.349,0.643,9.526,0.932c-0.089,0.972-0.177,1.943-0.266,2.915
			c-0.405,0-0.81-0.001-1.216-0.002c-0.736,0.005-1.096,0.297-1.164,1.016c-0.352,3.73-0.703,7.461-1.055,11.191
			c-0.105,1.115-0.241,2.554-0.505,3.764c-0.68,3.238-3.13,5.048-7.606,4.583C167.79,72.912,165.548,72.194,163.755,70.936z"/>
		<path fill="#FEBA00" d="M189.908,53.526c-0.762-0.133-1.524-0.268-2.285-0.404c0.081-0.972,0.161-1.945,0.242-2.917
			c2.778,0.23,5.557,0.444,8.338,0.642c1.983,7.11,4.04,14.213,6.168,21.306c0.013,0.001,0.025,0.001,0.038,0.002
			c0.71,0.079,1.421,0.157,2.131,0.234c-0.059,1.022-0.118,2.045-0.177,3.067c-3.239-0.187-6.477-0.395-9.714-0.625
			c0.069-0.973,0.138-1.947,0.207-2.92c0.477-0.003,0.955-0.005,1.432-0.009c0.792-0.018,1.181-0.21,0.973-1.02
			c-0.212-0.763-0.423-1.526-0.633-2.289c-2.911-0.2-5.821-0.418-8.73-0.653c-0.458,1.027-0.918,2.053-1.38,3.078
			c0.746,0.097,1.492,0.194,2.238,0.289c-0.081,1.021-0.162,2.042-0.243,3.063c-2.897-0.23-5.793-0.476-8.688-0.74
			c0.089-0.972,0.177-1.943,0.266-2.915c0.415,0.001,0.831,0.002,1.246,0.003c0.642-0.015,0.89-0.247,1.212-0.908
			C185.047,64.395,187.5,58.966,189.908,53.526z M189.056,64.697c2.302,0.183,4.605,0.355,6.909,0.517
			c-0.875-3.503-1.734-7.008-2.577-10.514c-0.036-0.003-0.073-0.005-0.109-0.008C191.888,58.031,190.48,61.366,189.056,64.697z"/>
		<path fill="#FEBA00" d="M218.711,55.24c-4.609-0.184-7.075,2.939-7.349,8.393c-0.284,5.663,1.494,9.276,6.723,9.377
			c1.051,0.041,2.032-0.031,2.752-0.222c0.683-0.193,0.806-0.478,0.829-1.165c0.033-0.963,0.066-1.926,0.1-2.889
			c1.266,0.128,2.532,0.253,3.799,0.375c-0.061,2.083-0.122,4.166-0.183,6.249c-2.102,0.988-5.098,1.321-7.512,1.225
			c-7.672-0.308-11.627-4.682-11.155-12.903c0.544-9.417,6.537-12.231,12.138-12.016c2.149,0.085,4.647,0.642,6.808,1.719
			c-0.061,2.047-0.122,4.094-0.183,6.141c-1.255,0.047-2.511,0.091-3.767,0.131c0.033-0.939,0.066-1.878,0.099-2.818
			c0.024-0.686-0.076-0.979-0.727-1.219C220.392,55.376,219.443,55.269,218.711,55.24z"/>
		<path fill="#FEBA00" d="M231.236,55.66c-0.695-0.051-1.391-0.104-2.086-0.157c0.026-1.024,0.051-2.048,0.077-3.071
			c2.919,0.073,5.838,0.128,8.757,0.165c-0.012,0.976-0.025,1.951-0.037,2.927c-0.404,0.031-0.807,0.062-1.211,0.092
			c-0.624,0.064-1.068,0.273-1.082,1.14c-0.042,2.65-0.084,5.301-0.126,7.951c2.571-2.948,5.111-5.909,7.62-8.883
			c-0.684-0.04-1.368-0.08-2.052-0.122c0.009-1.024,0.017-2.048,0.026-3.072c2.846,0.024,5.693,0.031,8.539,0.02
			c0.003,0.976,0.007,1.951,0.01,2.927c-0.403,0.038-0.806,0.075-1.209,0.112c-0.587,0.074-0.952,0.399-1.466,1.014
			c-1.737,2.096-3.49,4.185-5.258,6.268c2.158,3.522,4.348,7.035,6.57,10.537c0.663,0.035,1.327,0.069,1.99,0.102
			c0.004,1.024,0.009,2.048,0.013,3.072c-3.218,0.014-6.436,0.007-9.655-0.021c0.008-0.976,0.017-1.951,0.025-2.927
			c0.389-0.033,0.777-0.066,1.166-0.1c0.715-0.068,0.978-0.391,0.57-1.153c-1.224-2.068-2.438-4.139-3.641-6.213
			c-1.106,1.264-2.217,2.526-3.334,3.786c-0.018,1.12-0.036,2.241-0.053,3.361c0.713,0.047,1.426,0.094,2.14,0.139
			c-0.013,1.024-0.027,2.048-0.04,3.072c-3.017-0.039-6.034-0.097-9.051-0.173c0.025-0.975,0.049-1.951,0.074-2.926
			c0.414-0.026,0.828-0.052,1.242-0.079c0.715-0.056,1.095-0.264,1.115-1.168C230.992,66.741,231.114,61.2,231.236,55.66z"/>
		<path fill="#FEBA00" d="M259.386,73.66c0.413-0.043,0.825-0.087,1.238-0.13c0.637-0.084,1.083-0.31,1.069-1.032
			c-0.111-5.601-0.222-11.203-0.332-16.804c-0.697-0.022-1.394-0.045-2.091-0.07c-0.017-1.024-0.035-2.048-0.052-3.072
			c3.479-0.059,6.957-0.143,10.435-0.252c5.355-0.17,8.745,2.201,8.963,7.042c0.249,5.487-3.657,8.418-9.293,8.59
			c-1.056,0.032-2.112,0.062-3.169,0.089c0.045,1.746,0.091,3.492,0.136,5.239c1.202,0.005,2.405,0.007,3.607,0.005
			c0.032,1.024,0.063,2.047,0.095,3.071c-3.519,0.109-7.038,0.192-10.557,0.251C259.418,75.611,259.402,74.635,259.386,73.66z
			 M268.734,64.442c3.229-0.096,5.377-1.266,5.256-4.479c-0.141-3.722-2.323-4.213-5.914-4.107
			c-0.746,0.022-1.491,0.042-2.237,0.062c0.074,2.866,0.149,5.733,0.224,8.599C266.953,64.493,267.843,64.468,268.734,64.442z"/>
		<path fill="#FEBA00" d="M284.984,54.803c-0.773-0.032-1.545-0.065-2.317-0.1c-0.048-0.975-0.096-1.949-0.145-2.924
			c2.783-0.138,5.565-0.291,8.347-0.461c2.902,6.787,5.875,13.557,8.92,20.309c0.013-0.001,0.025-0.002,0.038-0.003
			c0.715-0.015,1.429-0.031,2.144-0.048c0.076,1.021,0.152,2.043,0.228,3.064c-3.236,0.241-6.474,0.461-9.712,0.659
			c-0.06-0.974-0.119-1.948-0.179-2.922c0.473-0.065,0.946-0.131,1.418-0.197c0.782-0.122,1.143-0.363,0.83-1.139
			c-0.31-0.728-0.62-1.457-0.928-2.186c-2.912,0.185-5.825,0.352-8.738,0.502c-0.319,1.078-0.64,2.156-0.963,3.233
			c0.752-0.002,1.505-0.004,2.257-0.008c0.054,1.023,0.108,2.045,0.163,3.068c-2.901,0.154-5.803,0.29-8.705,0.41
			c-0.04-0.975-0.08-1.95-0.121-2.925c0.411-0.053,0.823-0.107,1.234-0.161c0.635-0.1,0.849-0.362,1.081-1.06
			C281.598,66.217,283.314,60.513,284.984,54.803z M285.611,65.989c2.305-0.121,4.61-0.254,6.915-0.397
			c-1.328-3.358-2.641-6.719-3.938-10.083c-0.036,0.002-0.073,0.004-0.109,0.006C287.539,59.009,286.583,62.5,285.611,65.989z"/>
		<path fill="#FEBA00" d="M306.977,65.058c-2.423-3.706-4.814-7.424-7.171-11.153c-0.576,0.006-1.152,0.012-1.727,0.016
			c-0.072-1.022-0.145-2.043-0.217-3.065c2.962-0.21,5.924-0.439,8.884-0.685c0.081,0.972,0.162,1.945,0.243,2.917
			c-0.362,0.067-0.725,0.133-1.087,0.199c-0.798,0.138-0.972,0.731-0.508,1.456c1.207,2.005,2.423,4.008,3.648,6.007
			c0.049-0.004,0.099-0.008,0.148-0.013c1.128-2.612,2.242-5.226,3.342-7.843c-0.613,0.008-1.227,0.014-1.84,0.021
			c-0.09-1.02-0.181-2.04-0.271-3.06c2.608-0.231,5.214-0.476,7.82-0.736c0.097,0.971,0.193,1.942,0.29,2.913
			c-0.362,0.072-0.723,0.145-1.085,0.217c-0.577,0.129-0.834,0.517-1.137,1.2c-1.571,3.746-3.171,7.488-4.8,11.224
			c0.176,1.992,0.352,3.984,0.528,5.976c0.977-0.05,1.953-0.102,2.93-0.156c0.094,1.02,0.188,2.04,0.282,3.059
			c-3.534,0.326-7.069,0.627-10.606,0.902c-0.076-0.973-0.151-1.946-0.227-2.918c0.659-0.088,1.319-0.176,1.978-0.266
			c0.709-0.094,1.062-0.377,1.003-1.096C307.257,68.468,307.117,66.763,306.977,65.058z"/>
		<path fill="#FEBA00" d="M333.201,64.906c-0.268-2.262-2.457-2.656-5.124-3.05c-3.774-0.56-7.322-1.656-7.785-6.259
			c-0.438-4.39,2.708-7.386,7.708-7.953c2.396-0.272,4.698-0.072,7.002,0.664c0.221,1.793,0.442,3.587,0.663,5.38
			c-1.234,0.237-2.47,0.471-3.705,0.702c-0.082-0.694-0.164-1.388-0.246-2.082c-0.08-0.682-0.225-0.956-0.906-1.095
			c-0.718-0.134-1.674-0.096-2.404-0.013c-2.151,0.244-3.736,1.286-3.497,3.514c0.24,2.227,2.438,2.611,5.295,3.119
			c3.467,0.659,7.188,1.688,7.77,6.313c0.599,4.731-2.981,7.81-8.172,8.392c-3.004,0.336-5.387,0.115-7.74-0.663
			c-0.193-1.894-0.385-3.787-0.578-5.681c1.257-0.213,2.514-0.429,3.769-0.648c0.078,0.731,0.156,1.462,0.235,2.193
			c0.073,0.683,0.215,0.958,0.912,1.101c0.733,0.14,1.717,0.141,2.725,0.028C331.591,68.591,333.521,67.597,333.201,64.906z"/>
		<path fill="#FEBA00" d="M355.612,55.078c1.166-0.98,1.895-2.337,1.614-4.158c-0.27-1.751-1.478-2.586-3.588-2.271
			c-1.019,0.152-1.684,0.432-2.204,0.691c-0.624,0.31-0.646,0.678-0.547,1.357c0.125,0.859,0.249,1.717,0.374,2.576
			c-1.257,0.097-2.514,0.191-3.771,0.281c-0.267-1.909-0.534-3.818-0.8-5.727c1.761-1.195,4.243-2.425,7.139-2.861
			c4.592-0.693,7.227,1.399,7.752,4.648c0.413,2.569-0.683,4.869-2.412,6.344c3.158,0.458,4.223,2.588,4.527,4.481
			c0.677,4.17-1.431,7.749-7.277,8.624c-2.921,0.436-6.007-0.041-7.587-0.734c0.279-1.194,0.555-2.388,0.83-3.583
			c1.721,0.635,4.209,1.006,6.072,0.729c2.385-0.355,3.916-1.545,3.523-4.08c-0.354-2.288-1.901-3.247-5.883-2.659
			c-0.467,0.069-0.935,0.137-1.402,0.204c-0.046-1.101-0.093-2.202-0.14-3.302C353.091,55.455,354.352,55.268,355.612,55.078z"/>
		<path fill="#FEBA00" d="M378.882,44.09c-0.941,0.175-1.883,0.348-2.825,0.519c-0.761,0.138-0.743,0.648-0.634,1.253
			c0.101,0.557,0.201,1.114,0.302,1.671c-1.252,0.141-2.503,0.278-3.755,0.412c-0.353-2.018-0.707-4.035-1.06-6.053
			c6.289-1.102,12.568-2.288,18.833-3.559c0.407,2.007,0.814,4.015,1.222,6.022c-1.216,0.332-2.432,0.662-3.65,0.988
			c-0.11-0.555-0.219-1.111-0.329-1.666c-0.133-0.674-0.29-1.084-1.266-0.893c-0.819,0.161-1.639,0.32-2.459,0.477
			c1.087,5.655,2.175,11.31,3.262,16.965c0.982-0.152,1.964-0.307,2.947-0.463c0.197,1.005,0.395,2.01,0.592,3.015
			c-3.495,0.687-6.993,1.348-10.495,1.984c-0.174-0.96-0.349-1.92-0.523-2.88c0.649-0.155,1.297-0.31,1.946-0.467
			c0.693-0.201,1.023-0.484,0.891-1.194C380.881,54.845,379.882,49.468,378.882,44.09z"/>
		<path fill="#FEBA00" d="M406.304,59.881c-6.613,1.45-11.618-1.828-13.25-9.901c-1.829-9.067,3.292-13.435,8.295-14.544
			c5.327-1.17,10.869,0.934,12.991,9.866C416.253,53.35,412.806,58.451,406.304,59.881z M405.78,56.259
			c4.692-1.037,5.045-5.581,4.074-9.805c-0.826-3.597-2.96-8.432-7.92-7.335c-4.602,1.008-5.236,5.524-4.352,9.737
			C398.428,52.884,400.459,57.423,405.78,56.259z"/>
		<path fill="#FEBA00" d="M427.433,51.56c1.697-3.546,3.362-7.096,4.995-10.651c1.149-2.543,1.732-3.673,1.202-5.663
			c-0.541-2.026-2.124-2.65-3.805-2.21c-1.003,0.263-1.583,0.525-2.076,0.839c-0.59,0.377-0.572,0.745-0.401,1.41
			c0.213,0.828,0.426,1.656,0.64,2.484c-1.245,0.234-2.491,0.464-3.737,0.691c-0.471-1.869-0.942-3.739-1.412-5.608
			c1.631-1.38,4.079-2.789,6.784-3.5c4.373-1.152,7.438,0.698,8.453,4.394c0.63,2.301,0.052,4.708-1.267,7.458
			c-1.35,2.733-2.72,5.462-4.109,8.188c3.052-0.793,6.099-1.606,9.143-2.438c0.315,1.151,0.63,2.301,0.944,3.452
			c-4.881,1.335-9.773,2.62-14.674,3.853C427.886,53.36,427.66,52.46,427.433,51.56z"/>
	</g>
</g>
</svg>
