<?xml version="1.0" encoding="utf-8"?>
<!-- Generator: Adobe Illustrator 15.0.2, SVG Export Plug-In  -->
<!DOCTYPE svg PUBLIC "-//W3C//DTD SVG 1.1//EN" "http://www.w3.org/Graphics/SVG/1.1/DTD/svg11.dtd" [
	<!ENTITY ns_flows "http://ns.adobe.com/Flows/1.0/">
]>
<svg version="1.1"
	 xmlns="http://www.w3.org/2000/svg" xmlns:xlink="http://www.w3.org/1999/xlink" xmlns:a="http://ns.adobe.com/AdobeSVGViewerExtensions/3.0/"
	 x="0px" y="0px" width="267px" height="72px" viewBox="0 0 267 72" overflow="visible" enable-background="new 0 0 267 72"
	 xml:space="preserve">
<defs>
</defs>
<g>
	<path fill="#043D05" d="M147.567,34.25c2.588,2.283,3.9,3.414,6.562,5.653c0.525-0.544,0.787-0.817,1.309-1.363
		c-2.661-2.23-3.973-3.356-6.561-5.63C148.354,33.447,148.093,33.715,147.567,34.25z M145.209,41.141
		c0.681,0.6,1.025,0.9,1.711,1.497c1.922-1.758,2.872-2.643,4.752-4.423c-0.848-0.727-1.27-1.092-2.109-1.823
		C147.843,38.3,146.971,39.251,145.209,41.141z M164.014,33.819c-1.885-1.5-2.818-2.256-4.667-3.778
		c3.497-3.878,5.201-5.836,8.518-9.789c0.515-1.361,0.77-2.042,1.273-3.404c-1.262,0.743-1.896,1.111-3.17,1.844
		c-3.388,3.891-5.126,5.817-8.693,9.629c-4.007-3.348-5.968-5.049-9.804-8.497c-1.353-0.571-2.028-0.859-3.37-1.442
		c0.666,1.291,1.002,1.935,1.678,3.223c3.771,3.519,5.699,5.255,9.641,8.678c-1.648,1.736-2.48,2.599-4.166,4.318
		c0.863,0.746,1.297,1.118,2.168,1.859c1.651-1.746,2.467-2.624,4.081-4.387c1.816,1.553,2.734,2.326,4.585,3.857
		C162.863,35.088,163.247,34.666,164.014,33.819z M164.036,37.457c2.085,1.537,3.14,2.3,5.265,3.81
		c0.61-0.676,0.914-1.017,1.519-1.695c-1.983-1.66-2.966-2.497-4.909-4.181C165.165,36.219,164.79,36.632,164.036,37.457z
		 M166.169,31.851c-2.293,2.573-3.46,3.851-5.831,6.39c0.585,0.478,0.878,0.716,1.467,1.192c2.37-2.547,3.535-3.83,5.827-6.412
		C167.044,32.554,166.753,32.319,166.169,31.851z"/>
	<g>
		<path fill="#043D05" d="M29.286,8.329c-0.136-0.511-1.054-1.007-2.743-1.5c-2.212-0.645-4.099-0.427-5.687,0.667
			c-1.588,1.095-2.816,3-3.666,5.726c-1.763,5.66-0.357,9.224,4.248,10.567c0.074,0.021,0.404,0.119,0.99,0.288
			c0.584,0.169,1.16,0.253,1.726,0.252c0.566-0.001,0.921-0.069,1.066-0.203c0.145-0.133,0.265-0.375,0.363-0.721
			c0.312-1.109,0.468-1.663,0.78-2.772c1.482,0.521,2.225,0.78,3.712,1.287c-0.651,2.405-0.977,3.606-1.627,6.011
			c-2.217,0.42-4.846,0.202-7.859-0.676c-3.842-1.12-6.467-3.017-7.839-5.616c-1.373-2.599-1.403-5.843-0.142-9.724
			c0.697-2.145,1.631-3.911,2.79-5.303c1.158-1.392,2.423-2.37,3.787-2.913c2.65-1.056,5.434-1.144,8.356-0.292
			c2.356,0.687,4.439,1.782,6.271,3.3c-0.642,2.362-0.963,3.543-1.605,5.906c-1.503-0.304-2.254-0.461-3.756-0.78
			c0.305-1.081,0.458-1.621,0.763-2.702C29.311,8.785,29.336,8.516,29.286,8.329z"/>
		<path fill="#043D05" d="M33.657,26.182c4.093-5.873,6.09-8.834,9.986-14.796c-0.887-0.303-1.33-0.457-2.215-0.765
			c0.281-1.132,0.422-1.697,0.703-2.829c3.268,0.812,4.906,1.199,8.187,1.937c1.1,8.764,1.731,13.149,3.161,21.921
			c0.015,0.003,0.022,0.004,0.037,0.007c0.856,0.219,1.284,0.327,2.141,0.541c-0.238,1.201-0.356,1.802-0.594,3.002
			c-3.946-0.783-5.916-1.199-9.847-2.082c0.255-1.138,0.383-1.707,0.639-2.845c0.584,0.087,0.876,0.129,1.461,0.214
			c0.438,0.048,0.75,0.018,0.932-0.09c0.182-0.108,0.25-0.364,0.207-0.767c-0.126-0.941-0.189-1.412-0.312-2.354
			c-3.511-0.773-5.264-1.18-8.761-2.034c-0.749,1.122-1.125,1.683-1.881,2.802c0.893,0.265,1.34,0.395,2.234,0.655
			c-0.287,1.19-0.431,1.785-0.718,2.975c-3.509-0.846-5.26-1.289-8.754-2.215c0.299-1.127,0.448-1.691,0.747-2.818
			c0.506,0.089,0.761,0.133,1.268,0.221C32.816,26.956,33.276,26.728,33.657,26.182z M46.828,13.066
			c-2.273,3.686-3.428,5.521-5.771,9.176c2.758,0.667,4.139,0.987,6.905,1.603c-0.446-4.304-0.653-6.454-1.027-10.754
			C46.892,13.082,46.872,13.077,46.828,13.066z"/>
		<path fill="#043D05" d="M65.039,33.762c3.044,0.529,4.753-0.373,5.121-2.646c0.192-1.185-0.369-2.159-1.562-2.956
			c-0.641-0.428-1.5-0.91-2.559-1.387c-1.06-0.477-1.926-0.931-2.605-1.36c-0.679-0.428-1.348-0.972-1.987-1.63
			c-1.265-1.302-1.68-3.05-1.263-5.206c0.417-2.156,1.519-3.701,3.281-4.652c1.762-0.951,3.862-1.208,6.326-0.788
			s4.674,1.271,6.656,2.567c-0.324,2.136-0.487,3.203-0.811,5.339c-1.516-0.128-2.273-0.196-3.79-0.339
			c0.133-0.824,0.2-1.236,0.333-2.061c0.058-0.355,0.051-0.625-0.02-0.806c-0.192-0.492-1.014-0.856-2.458-1.1
			c-1.445-0.245-2.553-0.185-3.334,0.188c-0.781,0.373-1.268,1.077-1.456,2.116c-0.137,0.756,0.04,1.471,0.527,2.144
			c0.325,0.448,0.854,0.864,1.587,1.247s1.516,0.78,2.349,1.187s1.566,0.817,2.198,1.234c0.632,0.417,1.279,0.97,1.941,1.619
			c1.328,1.303,1.873,3.065,1.541,5.296c-0.333,2.232-1.451,3.862-3.374,4.874c-1.922,1.011-4.314,1.287-7.144,0.796
			c-2.829-0.491-5.28-1.445-7.333-2.845c0.432-2.234,0.647-3.351,1.079-5.585c1.555,0.198,2.332,0.293,3.887,0.475
			c-0.158,0.864-0.237,1.295-0.396,2.16c-0.065,0.354-0.062,0.625,0.009,0.808c0.07,0.182,0.352,0.399,0.844,0.646
			C63.119,33.345,63.922,33.567,65.039,33.762z"/>
		<path fill="#043D05" d="M79.473,35.017c0.897-6.563,1.345-9.845,2.242-16.408c-0.827-0.157-1.241-0.235-2.067-0.396
			c0.172-1.212,0.258-1.818,0.431-3.03c3.506,0.499,5.261,0.727,8.775,1.144c-0.137,1.158-0.206,1.738-0.343,2.896
			c-0.488-0.014-0.733-0.021-1.221-0.038c-0.715-0.015-1.116,0.323-1.202,1.013c-0.821,6.587-1.231,9.881-2.052,16.468
			c0.867,0.151,1.3,0.226,2.168,0.373c-0.145,1.215-0.217,1.824-0.362,3.04c-3.735-0.445-5.601-0.689-9.328-1.222
			c0.165-1.155,0.247-1.73,0.412-2.885c0.51,0.029,0.767,0.042,1.277,0.07c0.389,0.006,0.682-0.057,0.882-0.187
			C79.284,35.725,79.414,35.445,79.473,35.017z"/>
		<path fill="#043D05" d="M88.352,40.368c0.13-1.159,0.194-1.738,0.325-2.897c0.557,0.02,0.836,0.028,1.393,0.045
			c0.67,0.025,1.037-0.272,1.104-0.894c0.71-6.658,1.065-9.989,1.775-16.647c-0.831-0.132-1.246-0.198-2.076-0.334
			c0.137-1.216,0.204-1.826,0.341-3.042c2.615,0.293,3.924,0.428,6.542,0.676c3.494,6.97,5.333,10.438,9.193,17.322
			c0.031,0.002,0.045,0.002,0.076,0.004c0.357-5.331,0.536-7.996,0.893-13.326c-0.967-0.108-1.45-0.164-2.416-0.278
			c0.09-1.221,0.135-1.832,0.225-3.053c3.555,0.261,5.333,0.371,8.892,0.548c-0.058,1.165-0.087,1.747-0.146,2.912
			c-0.532,0.017-0.797,0.026-1.329,0.041c-0.59,0.017-0.905,0.372-0.943,1.067c-0.44,7.908-0.659,11.861-1.099,19.769
			c-1.813-0.101-2.721-0.157-4.534-0.278c-4.029-6.995-5.95-10.518-9.599-17.605c-0.03-0.003-0.044-0.003-0.074-0.006
			c-0.516,5.419-0.774,8.127-1.29,13.546c0.993,0.138,1.492,0.205,2.486,0.337c-0.108,1.219-0.163,1.828-0.271,3.047
			C94.03,40.985,92.136,40.794,88.352,40.368z"/>
		<path fill="#043D05" d="M127.775,18.487c2.879,0.043,5.28,1.056,7.248,3.063c1.968,2.008,2.998,5.072,3.047,9.212
			c0.049,4.139-0.919,7.287-2.953,9.419c-2.033,2.132-4.829,3.191-8.337,3.133c-3.509-0.058-6.236-1.205-8.135-3.388
			s-2.735-5.298-2.556-9.326c0.098-2.206,0.521-4.126,1.259-5.765c0.736-1.639,1.659-2.893,2.768-3.767
			C122.357,19.298,124.895,18.444,127.775,18.487z M120.798,30.602c-0.193,5.95,1.915,9.013,6.329,9.083
			c2.361,0.038,4.02-0.891,4.977-2.688c0.851-1.599,1.299-3.575,1.299-5.903c0-2.088-0.37-4.021-1.112-5.76
			c-0.409-0.958-1.048-1.721-1.891-2.28c-0.844-0.559-1.938-0.846-3.288-0.868s-2.517,0.383-3.511,1.222
			c-0.996,0.839-1.7,1.863-2.109,3.074C121.082,27.692,120.848,29.067,120.798,30.602z"/>
	</g>
	<g>
		<path fill="#043D05" d="M208.608,14.482c-0.467,0.138-0.703,0.205-1.171,0.341c-0.615,0.17-0.932,0.668-0.945,1.498
			c-0.339,8.021-0.553,12.035-1.081,20.067c-2.09,0.379-3.136,0.563-5.229,0.915c-2.66-6.019-3.959-9.04-6.494-15.095
			c-0.044,0.007-0.066,0.011-0.11,0.018c-0.509,6.535-0.793,9.804-1.427,16.342c-2.16,0.318-3.24,0.469-5.403,0.758
			c-3.21-7.913-4.762-11.885-7.756-19.853c-0.835,0.057-1.252,0.085-2.087,0.138c-0.138-1.21-0.208-1.815-0.346-3.025
			c3.585-0.41,5.375-0.636,8.952-1.132c0.159,1.149,0.24,1.724,0.399,2.873c-0.474,0.109-0.713,0.163-1.188,0.271
			c-0.742,0.173-1.076,0.53-1.004,1.075c0.013,0.095,0.04,0.201,0.08,0.315c1.995,5.315,3.016,7.965,5.102,13.257
			c0.061-0.008,0.09-0.013,0.15-0.022c0.665-6.635,0.966-9.95,1.501-16.582c1.867-0.283,2.803-0.43,4.667-0.736
			c2.614,6.163,3.953,9.234,6.699,15.357c0.03-0.005,0.046-0.006,0.076-0.012c0.246-6.124,0.345-9.184,0.493-15.301
			c-0.792,0.087-1.185,0.129-1.977,0.212c-0.214-1.199-0.321-1.798-0.535-2.998c3.23-0.576,4.842-0.88,8.062-1.526
			C208.265,12.774,208.38,13.345,208.608,14.482z"/>
		<path fill="#043D05" d="M211.669,31.111c1.116-7.032,1.622-10.549,2.53-17.576c-0.926,0.112-1.387,0.166-2.312,0.272
			c-0.238-1.136-0.358-1.703-0.597-2.839c3.273-0.687,4.907-1.048,8.168-1.808c4.78,7.375,7.249,11.031,12.335,18.271
			c0.015-0.003,0.02-0.005,0.034-0.009c0.864-0.175,1.297-0.264,2.16-0.444c0.307,1.179,0.459,1.769,0.765,2.947
			c-3.887,1.009-5.834,1.49-9.738,2.401c-0.264-1.13-0.396-1.696-0.659-2.826c0.562-0.175,0.841-0.263,1.401-0.44
			c0.414-0.147,0.682-0.31,0.798-0.486c0.116-0.174,0.063-0.433-0.151-0.774c-0.521-0.789-0.779-1.184-1.297-1.974
			c-3.483,0.827-5.227,1.22-8.724,1.967c-0.185,1.329-0.279,1.995-0.472,3.324c0.913-0.149,1.368-0.223,2.281-0.377
			c0.258,1.19,0.387,1.785,0.645,2.976c-3.505,0.76-5.259,1.12-8.776,1.801c-0.221-1.14-0.331-1.71-0.552-2.85
			c0.491-0.139,0.737-0.21,1.228-0.35C211.256,32.167,211.564,31.766,211.669,31.111z M217.778,13.663
			c-0.441,4.286-0.682,6.429-1.197,10.719c2.755-0.596,4.132-0.905,6.879-1.551c-2.263-3.663-3.378-5.503-5.574-9.193
			C217.843,13.647,217.821,13.653,217.778,13.663z"/>
		<path fill="#043D05" d="M236.144,29.562c-0.296-1.123-0.442-1.685-0.738-2.808c0.482-0.171,0.722-0.257,1.203-0.43
			c0.703-0.262,0.978-0.683,0.822-1.259c-1.736-6.433-2.604-9.648-4.341-16.081c-0.824,0.178-1.237,0.266-2.062,0.439
			c-0.311-1.178-0.465-1.767-0.775-2.944c3.866-1.021,5.796-1.556,9.641-2.681c2.724-0.796,4.951-0.946,6.713-0.418
			c1.761,0.527,3.003,1.897,3.712,4.127c0.492,1.548,0.473,2.958-0.065,4.228c-0.539,1.271-2.378,3.136-2.378,3.136
			c0.018,0.055,1.866,0.515,2.717,1.451c1.719,1.821,2.587,2.726,4.334,4.53c0.852-0.241,1.275-0.364,2.126-0.61
			c0.376,1.158,0.563,1.738,0.939,2.896c-3.673,1.193-5.515,1.768-9.208,2.871c-0.332-1.112-0.498-1.669-0.83-2.782
			c0.419-0.17,0.629-0.255,1.047-0.426c0.548-0.24,0.77-0.531,0.666-0.873c-0.042-0.137-0.14-0.282-0.294-0.436
			c-1.11-1.16-1.665-1.742-2.764-2.909c-0.441-0.491-0.859-0.809-1.26-0.952c-0.4-0.143-0.905-0.125-1.515,0.052
			c-1.331,0.389-1.994,0.581-3.328,0.958c0.678,2.399,1.017,3.598,1.694,5.998c0.979-0.232,1.468-0.35,2.446-0.588
			c0.339,1.17,0.508,1.756,0.847,2.926C241.763,28.058,239.892,28.575,236.144,29.562z M239.576,15.369
			c1.264-0.357,1.896-0.538,3.156-0.905c2.973-0.867,4.071-2.586,3.306-5.1c-0.438-1.438-1.107-2.257-2.011-2.459
			c-0.899-0.202-2.199-0.049-3.907,0.446c-1.038,0.301-1.559,0.45-2.599,0.744C238.344,11.005,238.754,12.46,239.576,15.369z"/>
	</g>
	<g>
		<path fill="#FEBA00" d="M43.118,59.912c0.714-3.322,1.073-4.981,1.788-8.303c-0.646-0.139-0.97-0.21-1.616-0.352
			c-0.318-0.07-0.518,0.085-0.601,0.462c-0.076,0.344-0.114,0.516-0.189,0.859c-0.836-0.238-1.255-0.359-2.09-0.602
			c0.28-1.241,0.422-1.86,0.702-3.102c4.307,0.973,6.464,1.43,10.79,2.288c-0.248,1.248-0.37,1.871-0.618,3.119
			c-0.86-0.117-1.292-0.176-2.151-0.298c0.07-0.345,0.106-0.517,0.177-0.861c0.042-0.208,0.038-0.362-0.014-0.461
			s-0.21-0.176-0.473-0.23c-0.564-0.116-0.846-0.173-1.41-0.291c-0.731,3.501-1.096,5.251-1.827,8.753
			c0.665,0.162,0.997,0.243,1.662,0.402c-0.127,0.623-0.193,0.934-0.32,1.557c-2.399-0.491-3.597-0.745-5.99-1.271
			c0.13-0.592,0.195-0.887,0.325-1.479c0.453,0.077,0.68,0.114,1.133,0.189C42.812,60.344,43.052,60.216,43.118,59.912z"/>
		<path fill="#FEBA00" d="M52.216,61.671c0.651-3.38,0.977-5.07,1.628-8.451c-0.469-0.113-0.703-0.17-1.172-0.285
			c0.122-0.625,0.183-0.936,0.305-1.561c2.002,0.392,3.004,0.581,5.009,0.948c-0.109,0.596-0.165,0.895-0.274,1.491
			c-0.279-0.028-0.417-0.042-0.695-0.071c-0.408-0.038-0.646,0.121-0.712,0.477c-0.632,3.392-0.947,5.088-1.579,8.479
			c0.48,0.112,0.719,0.168,1.2,0.279c-0.115,0.625-0.173,0.938-0.288,1.563c-2.065-0.378-3.095-0.574-5.157-0.978
			c0.117-0.595,0.175-0.893,0.292-1.487c0.285,0.033,0.426,0.05,0.711,0.083c0.216,0.017,0.382-0.006,0.496-0.067
			C52.094,62.033,52.173,61.893,52.216,61.671z"/>
		<path fill="#FEBA00" d="M67.221,66.503c-4.067-0.632-6.099-0.971-10.153-1.701c0.107-0.597,0.161-0.896,0.269-1.492
			c0.285,0.028,0.427,0.042,0.712,0.07c0.418,0.037,0.654-0.099,0.708-0.406c0.605-3.427,0.909-5.142,1.515-8.569
			c-0.471-0.106-0.706-0.158-1.177-0.265c0.112-0.626,0.168-0.939,0.28-1.565c3.797,0.682,5.7,1,9.508,1.593
			c-0.191,1.228-0.288,1.841-0.479,3.068c-0.862-0.082-1.294-0.122-2.156-0.208c0.048-0.295,0.071-0.444,0.119-0.74
			c0.034-0.209,0.023-0.362-0.032-0.46c-0.055-0.097-0.216-0.167-0.48-0.21c-1.235-0.201-1.853-0.305-3.086-0.515
			c-0.215,1.262-0.322,1.893-0.537,3.154c1.941,0.331,2.912,0.489,4.855,0.797c-0.12,0.754-0.18,1.131-0.299,1.885
			c-1.952-0.309-2.928-0.47-4.877-0.802c-0.235,1.379-0.352,2.069-0.586,3.449c1.37,0.233,2.056,0.349,3.427,0.571
			c0.254,0.041,0.424,0.019,0.51-0.062c0.086-0.081,0.146-0.225,0.179-0.435c0.059-0.369,0.09-0.554,0.149-0.923
			c0.857,0.191,1.288,0.285,2.146,0.472C67.528,64.529,67.425,65.187,67.221,66.503z"/>
		<path fill="#FEBA00" d="M74.936,55.069c2.349,0.331,3.524,0.489,5.876,0.787c3.002,0.38,4.387,1.58,4.148,3.649
			c-0.132,1.14-2.247,2.372-2.247,2.372c0,0.045,1.42,0.704,1.837,1.254s0.581,1.221,0.491,2.014
			c-0.137,1.202-0.708,2.067-1.718,2.589c-1.01,0.522-2.415,0.675-4.203,0.448c-2.413-0.306-3.619-0.468-6.028-0.809
			c0.085-0.6,0.126-0.9,0.211-1.5c0.285,0.018,0.428,0.028,0.713,0.045c0.417,0.021,0.648-0.125,0.691-0.434
			c0.476-3.447,0.715-5.171,1.191-8.618c-0.474-0.088-0.71-0.133-1.184-0.223C74.803,56.013,74.847,55.699,74.936,55.069z
			 M78.439,57.284c-0.177,1.343-0.267,2.014-0.444,3.357c0.625,0.083,0.937,0.123,1.562,0.203c0.873,0.112,1.536,0.033,1.99-0.231
			s0.714-0.682,0.784-1.251s-0.088-0.996-0.472-1.282c-0.383-0.286-0.958-0.477-1.725-0.575
			C79.457,57.418,79.118,57.374,78.439,57.284z M77.777,62.293c-0.205,1.551-0.307,2.326-0.512,3.877
			c0.804,0.106,1.206,0.158,2.01,0.26c1.853,0.235,2.86-0.313,3.019-1.626c0.075-0.619-0.1-1.12-0.519-1.504
			c-0.42-0.384-1.052-0.628-1.9-0.735C79.036,62.458,78.616,62.404,77.777,62.293z"/>
		<path fill="#FEBA00" d="M96.238,70.009c-4.093-0.354-6.137-0.556-10.223-1.008c0.066-0.603,0.101-0.905,0.167-1.507
			c0.285,0.009,0.427,0.014,0.712,0.022c0.418,0.008,0.645-0.144,0.678-0.454c0.372-3.46,0.559-5.189,0.931-8.649
			c-0.476-0.074-0.714-0.113-1.189-0.188c0.07-0.632,0.104-0.948,0.174-1.58c3.826,0.422,5.74,0.612,9.572,0.946
			c-0.108,1.238-0.162,1.855-0.27,3.093c-0.864-0.023-1.296-0.034-2.161-0.061c0.027-0.298,0.041-0.448,0.068-0.747
			c0.02-0.211-0.001-0.363-0.063-0.457c-0.062-0.093-0.226-0.152-0.491-0.177c-1.244-0.117-1.866-0.177-3.109-0.303
			c-0.129,1.273-0.193,1.909-0.322,3.182c1.955,0.198,2.933,0.292,4.889,0.467c-0.068,0.76-0.103,1.141-0.171,1.901
			c-1.965-0.176-2.948-0.27-4.911-0.469c-0.141,1.392-0.213,2.088-0.354,3.48c1.38,0.14,2.071,0.208,3.452,0.336
			c0.256,0.024,0.426-0.009,0.506-0.095c0.08-0.087,0.13-0.234,0.149-0.446c0.034-0.373,0.051-0.559,0.085-0.932
			c0.867,0.132,1.301,0.197,2.168,0.325C96.412,68.018,96.353,68.682,96.238,70.009z"/>
		<path fill="#FEBA00" d="M101.951,68.363c0.25-3.389,0.375-5.082,0.624-8.471c-0.656-0.048-0.985-0.073-1.642-0.124
			c-0.323-0.025-0.497,0.156-0.527,0.541c-0.027,0.351-0.042,0.525-0.069,0.876c-0.856-0.12-1.285-0.182-2.14-0.306
			c0.106-1.268,0.16-1.9,0.266-3.168c4.377,0.367,6.567,0.521,10.951,0.772c-0.073,1.27-0.11,1.905-0.183,3.175
			c-0.865,0.003-1.297,0.004-2.163,0.002c0.022-0.351,0.035-0.527,0.057-0.878c0.013-0.211-0.012-0.362-0.077-0.454
			c-0.065-0.091-0.231-0.146-0.499-0.163c-0.572-0.037-0.858-0.055-1.43-0.094c-0.241,3.569-0.361,5.353-0.602,8.922
			c0.678,0.068,1.015,0.103,1.693,0.168c-0.041,0.635-0.059,0.952-0.1,1.587c-2.433-0.154-3.649-0.241-6.081-0.43
			c0.047-0.604,0.071-0.906,0.118-1.51c0.457,0.013,0.685,0.019,1.141,0.031C101.707,68.834,101.928,68.674,101.951,68.363z"/>
		<path fill="#FEBA00" d="M132.371,60.688c-0.278,0.022-0.417,0.034-0.696,0.056c-0.365,0.023-0.598,0.248-0.698,0.671
			c-1.088,4.072-1.645,6.105-2.784,10.17c-1.183-0.015-1.774-0.023-2.958-0.046c-0.843-3.347-1.258-5.023-2.066-8.375
			c-0.025,0-0.036,0-0.062,0c-0.946,3.308-1.429,4.961-2.409,8.264c-1.218-0.036-1.828-0.056-3.045-0.101
			c-1.034-4.359-1.534-6.542-2.508-10.906c-0.479-0.043-0.718-0.065-1.196-0.11c0.029-0.635,0.044-0.953,0.073-1.588
			c2.08,0.097,3.12,0.138,5.2,0.209c-0.021,0.606-0.031,0.91-0.052,1.516c-0.278,0.013-0.417,0.02-0.695,0.032
			c-0.438,0.021-0.662,0.176-0.672,0.463c-0.002,0.05,0.004,0.105,0.017,0.168c0.626,2.914,0.946,4.371,1.597,7.283
			c0.034,0.001,0.05,0.002,0.084,0.003c1.002-3.352,1.496-5.03,2.463-8.387c1.084,0.03,1.625,0.042,2.71,0.064
			c0.837,3.416,1.266,5.124,2.14,8.536c0.018,0,0.025,0,0.043,0c0.777-3.117,1.161-4.675,1.912-7.795
			c-0.454-0.035-0.682-0.055-1.136-0.091c0.009-0.636,0.013-0.953,0.022-1.589c1.888,0.026,2.832,0.033,4.72,0.038
			C132.373,59.78,132.372,60.082,132.371,60.688z"/>
		<path fill="#FEBA00" d="M134.475,69.426c-0.008-3.442-0.011-5.164-0.02-8.606c-0.48-0.021-0.721-0.033-1.201-0.056
			c0-0.636,0-0.954,0-1.59c2.03,0.001,3.046-0.004,5.077-0.027c0.007,0.606,0.011,0.909,0.018,1.516
			c-0.277,0.026-0.417,0.038-0.695,0.063c-0.407,0.041-0.609,0.242-0.606,0.604c0.029,3.45,0.045,5.175,0.074,8.625
			c0.491,0.018,0.736,0.027,1.227,0.044c0.007,0.636,0.011,0.954,0.018,1.59c-2.091,0.024-3.136,0.028-5.227,0.027
			c0-0.606,0.001-0.909,0.002-1.515c0.284-0.022,0.427-0.033,0.711-0.056c0.214-0.025,0.372-0.078,0.473-0.16
			C134.425,69.805,134.475,69.651,134.475,69.426z"/>
		<path fill="#FEBA00" d="M139.771,71.571c-0.009-0.606-0.014-0.91-0.022-1.516c0.31-0.027,0.464-0.04,0.773-0.067
			c0.373-0.031,0.558-0.21,0.552-0.535c-0.062-3.479-0.093-5.219-0.154-8.698c-0.48-0.014-0.722-0.021-1.202-0.036
			c-0.009-0.636-0.013-0.954-0.022-1.59c1.51-0.022,2.266-0.038,3.776-0.074c2.456,3.377,3.708,5.057,6.26,8.397
			c0.017,0,0.024,0,0.042,0c-0.106-2.774-0.157-4.163-0.263-6.937c-0.556-0.001-0.835-0.002-1.392-0.005
			c-0.022-0.636-0.032-0.953-0.054-1.589c2.047-0.071,3.069-0.113,5.115-0.209c0.028,0.605,0.042,0.908,0.071,1.514
			c-0.302,0.037-0.452,0.054-0.754,0.09c-0.335,0.04-0.498,0.241-0.481,0.603c0.181,4.112,0.271,6.168,0.453,10.281
			c-1.009,0.044-1.513,0.065-2.523,0.104c-2.629-3.39-3.92-5.096-6.449-8.524c-0.017,0-0.025,0-0.042,0.001
			c0.067,2.828,0.101,4.243,0.168,7.071c0.56,0.009,0.84,0.013,1.4,0.021c0.017,0.636,0.025,0.955,0.042,1.591
			C142.946,71.52,141.888,71.541,139.771,71.571z"/>
		<path fill="#FEBA00" d="M159.185,69.164c1.718-0.103,2.539-0.759,2.46-1.954c-0.041-0.622-0.466-1.048-1.221-1.309
			c-0.404-0.139-0.935-0.279-1.574-0.391c-0.642-0.111-1.177-0.233-1.603-0.366c-0.428-0.132-0.863-0.324-1.299-0.576
			c-0.864-0.5-1.324-1.328-1.381-2.468c-0.057-1.14,0.344-2.058,1.197-2.759c0.855-0.702,1.995-1.093,3.426-1.181
			s2.775,0.079,4.041,0.501c0.08,1.12,0.12,1.68,0.199,2.8c-0.857,0.114-1.287,0.168-2.145,0.277
			c-0.028-0.433-0.042-0.649-0.071-1.083c-0.012-0.186-0.049-0.323-0.111-0.406c-0.168-0.225-0.674-0.311-1.507-0.259
			c-0.835,0.052-1.442,0.218-1.828,0.503c-0.385,0.284-0.561,0.7-0.53,1.248c0.022,0.399,0.211,0.738,0.566,1.018
			c0.238,0.187,0.582,0.332,1.034,0.436c0.454,0.104,0.935,0.209,1.446,0.314c0.51,0.105,0.964,0.225,1.365,0.361
			c0.398,0.136,0.825,0.338,1.267,0.588c0.889,0.503,1.398,1.334,1.483,2.503s-0.33,2.125-1.251,2.865
			c-0.923,0.739-2.181,1.16-3.771,1.256c-1.591,0.096-3.034-0.083-4.325-0.53c-0.059-1.181-0.088-1.771-0.147-2.952
			c0.871-0.096,1.306-0.146,2.177-0.247c0.025,0.456,0.038,0.685,0.063,1.141c0.01,0.187,0.047,0.323,0.109,0.407
			s0.243,0.157,0.541,0.222S158.555,69.201,159.185,69.164z"/>
		<path fill="#FEBA00" d="M173.856,67.451c-0.277-2.928-0.415-4.392-0.691-7.32c-0.942,0.54-1.415,0.809-2.363,1.344
			c-0.423-0.541-0.633-0.813-1.053-1.355c1.459-0.975,2.185-1.465,3.627-2.452c0.82-0.078,1.23-0.118,2.05-0.2
			c0.415,4.125,0.623,6.188,1.038,10.313c0.896-0.052,1.343-0.079,2.238-0.136c0.067,0.633,0.102,0.948,0.168,1.581
			c-2.995,0.316-4.493,0.462-7.492,0.726c-0.054-0.611-0.081-0.917-0.135-1.528c0.82-0.117,1.229-0.179,2.049-0.3
			c0.214-0.033,0.365-0.096,0.458-0.192C173.841,67.835,173.877,67.674,173.856,67.451z"/>
		<path fill="#FEBA00" d="M183.799,56.295c3.158-0.382,5.003,1.435,5.542,5.502c0.287,2.164,0.081,3.807-0.63,4.924
			c-0.712,1.117-1.904,1.781-3.565,1.981c-1.662,0.2-2.961-0.158-3.887-1.065c-0.926-0.907-1.499-2.416-1.729-4.524
			c-0.229-2.108,0.042-3.724,0.808-4.852C181.105,57.134,182.253,56.482,183.799,56.295z M183.096,66.166
			c0.48,0.59,1.105,0.842,1.876,0.749s1.328-0.496,1.666-1.204c0.338-0.708,0.401-1.876,0.195-3.504
			c-0.206-1.626-0.552-2.737-1.03-3.331c-0.478-0.592-1.098-0.844-1.867-0.751c-0.769,0.093-1.312,0.506-1.632,1.24
			s-0.387,1.902-0.202,3.507S182.616,65.575,183.096,66.166z"/>
		<path fill="#FEBA00" d="M198.476,65.107c-0.385-2.519-0.579-3.779-0.964-6.298c-0.492,0.075-0.741,0.113-1.233,0.187
			c-0.24,0.036-0.338,0.198-0.295,0.485c0.039,0.261,0.059,0.391,0.098,0.652c-0.651,0.058-0.978,0.085-1.629,0.141
			c-0.137-0.944-0.206-1.416-0.343-2.36c3.29-0.477,4.934-0.733,8.216-1.275c0.155,0.941,0.233,1.412,0.389,2.354
			c-0.637,0.145-0.958,0.216-1.596,0.358c-0.042-0.26-0.06-0.39-0.102-0.65c-0.025-0.157-0.071-0.264-0.135-0.32
			c-0.062-0.056-0.195-0.067-0.395-0.035c-0.429,0.069-0.643,0.102-1.071,0.169c0.418,2.65,0.629,3.976,1.047,6.626
			c0.509-0.063,0.762-0.095,1.271-0.159c0.075,0.471,0.114,0.706,0.189,1.177c-1.811,0.291-2.72,0.432-4.532,0.703
			c-0.067-0.45-0.1-0.674-0.167-1.124c0.337-0.068,0.507-0.102,0.844-0.17C198.373,65.491,198.511,65.338,198.476,65.107z"/>
		<path fill="#FEBA00" d="M207.476,55.583c1.238-0.22,2.343-0.023,3.322,0.594c0.979,0.618,1.622,1.715,1.922,3.301
			c0.3,1.586,0.107,2.865-0.588,3.836c-0.694,0.971-1.768,1.59-3.214,1.847c-1.447,0.257-2.653,0.047-3.612-0.626
			c-0.957-0.672-1.563-1.788-1.821-3.338c-0.142-0.849-0.122-1.618,0.055-2.307c0.177-0.688,0.469-1.246,0.869-1.675
			C205.22,56.346,206.24,55.803,207.476,55.583z M205.455,60.793c0.391,2.287,1.504,3.274,3.334,2.949
			c0.979-0.174,1.597-0.659,1.865-1.419c0.239-0.678,0.289-1.471,0.125-2.363c-0.147-0.801-0.438-1.515-0.876-2.122
			c-0.241-0.334-0.57-0.575-0.97-0.722c-0.4-0.146-0.886-0.168-1.463-0.065c-0.576,0.102-1.042,0.355-1.399,0.759
			c-0.356,0.404-0.574,0.854-0.651,1.351C205.343,59.658,205.354,60.204,205.455,60.793z"/>
		<path fill="#FEBA00" d="M222.386,60.049c-0.609-2.877-0.913-4.316-1.522-7.194c-0.879,0.645-1.32,0.966-2.205,1.606
			c-0.483-0.489-0.725-0.733-1.205-1.224c1.344-1.136,2.01-1.707,3.337-2.854c0.81-0.172,1.217-0.26,2.025-0.436
			c0.883,4.051,1.325,6.077,2.208,10.128c0.888-0.155,1.331-0.234,2.219-0.394c0.139,0.621,0.207,0.931,0.346,1.552
			c-2.952,0.659-4.432,0.976-7.392,1.583c-0.123-0.601-0.182-0.9-0.305-1.501c0.805-0.211,1.206-0.318,2.01-0.533
			c0.208-0.057,0.353-0.139,0.433-0.245C222.414,60.432,222.433,60.269,222.386,60.049z"/>
	</g>
	<path fill="#043D05" d="M253.953,34.816C174.931,57.513,95.02,57.799,15.837,35.671c0.228-0.767,0.341-1.151,0.569-1.917
		c78.798,22.024,158.324,21.735,236.963-0.849C253.603,33.669,253.72,34.051,253.953,34.816z"/>
</g>
</svg>
