<?xml version="1.0" encoding="utf-8"?>
<!-- Generator: Adobe Illustrator 15.0.2, SVG Export Plug-In . SVG Version: 6.00 Build 0)  -->
<!DOCTYPE svg PUBLIC "-//W3C//DTD SVG 1.1//EN" "http://www.w3.org/Graphics/SVG/1.1/DTD/svg11.dtd">
<svg version="1.1" id="Layer_1" xmlns="http://www.w3.org/2000/svg" xmlns:xlink="http://www.w3.org/1999/xlink" x="0px" y="0px"
	 width="256.07px" height="46.642px" viewBox="0 0 256.07 46.642" enable-background="new 0 0 256.07 46.642" xml:space="preserve">
<g>
	<g>
		<linearGradient id="SVGID_1_" gradientUnits="userSpaceOnUse" x1="128.0347" y1="0" x2="128.0347" y2="46.6426">
			<stop  offset="0" style="stop-color:#FEE24C"/>
			<stop  offset="0.5" style="stop-color:#FFD700"/>
			<stop  offset="1" style="stop-color:#FDB701"/>
		</linearGradient>
		<path fill="url(#SVGID_1_)" d="M12.936,18.193c-1.55-0.747-4.329-2.135-4.329-4.751c0-3.203,2.405-4.537,5.719-4.537
			c3.688,0,7.002,2.082,7.697,6.459h3.546c0.749,0,0.909-0.534,0.909-1.175v-7.8h-3.172c-0.428,1.868-0.535,2.729-0.802,4.117
			h-0.588c-0.588-3.043-3.314-5.979-9.996-5.979c-5.987,0-11.438,3.043-11.438,9.715c0,8.595,9.3,11.425,15.394,13.825
			c2.299,0.856,4.864,1.977,4.864,4.698c0,2.99-2.939,4.858-7.109,4.858c-5.666,0-7.857-3.522-6.307-7.579l-4.223-1.922
			C1.069,29.135,0,31.539,0,33.62c0,3.63,3.475,8.541,13.203,8.541c7.644,0,15.181-3.256,15.181-10.996
			C28.384,23.104,19.19,21.129,12.936,18.193z M56.229,31.859c0.322,1.815,0.535,5.338-1.71,5.338c-1.443,0-1.924-1.976-1.87-5.445
			l0.053-8.221c0.106-7.526-5.132-10.089-11.6-10.089c-7.163,0-10.583,3.737-10.583,6.993c0,2.082,0.962,3.469,2.031,4.376
			l4.597-1.387c-0.962-3.363,0.321-6.459,3.635-6.459c3.421,0,4.437,1.708,4.437,6.299v3.309
			c-6.361-0.853-15.395,0.747-15.395,7.795c0,4.003,2.726,7.26,7.27,7.26c4.65,0,7.912-3.203,9.194-6.46l0.536,0.16
			c-0.428,3.79,1.496,6.3,5.719,6.3c4.757,0,6.361-2.992,6.361-6.193c0.053-1.388-0.268-2.829-0.909-4.002L56.229,31.859z
			 M45.219,31.539c0,2.883-2.566,5.605-4.757,5.605c-1.818,0-3.101-1.281-3.101-3.897c0-3.47,3.688-5.125,7.858-4.644V31.539z
			 M73.172,31.965c0.641,2.776,0,5.766-2.62,5.766c-2.619,0-2.993-2.936-2.993-6.513V18.354c2.191-0.054,5.505-0.214,7.804-0.535
			v-3.301H67.56V9.104c0-0.907-0.107-1.122-0.588-1.122h-5.865v6.536h-3.292v3.301c1.069,0.214,2.33,0.427,3.292,0.535V32.5
			c0,5.071,0.894,8.967,7.629,8.967c4.811,0,7.644-2.615,7.644-6.513c0-1.387-0.428-2.562-1.069-3.468L73.172,31.965z
			 M90.436,13.442c-9.3,0-13.096,6.246-13.096,14.146c0,8.434,4.169,14.146,13.096,14.146c8.66,0,13.15-5.339,13.15-14.146
			C103.585,19.688,100.111,13.442,90.436,13.442z M90.436,38.425c-4.276,0-5.185-4.271-5.185-10.837
			c0-6.565,0.909-10.783,5.185-10.783c4.33,0,5.239,4.217,5.239,10.783C95.675,34.154,94.766,38.425,90.436,38.425z M114.968,22.73
			c-1.711-0.854-2.833-1.601-2.833-2.936c0-2.188,1.871-3.309,4.224-3.309c2.833-0.054,5.238,1.761,4.223,5.124l3.848,1.441
			c1.176-0.8,2.245-2.349,2.245-3.843c0-3.576-4.971-5.766-10.103-5.766c-6.628,0-11.011,2.937-11.011,8.167
			c0,6.673,7.858,8.701,12.347,10.569c1.55,0.694,2.887,1.549,2.887,2.99c0,2.295-2.245,3.63-4.65,3.63
			c-2.887,0-5.613-1.814-4.597-5.659l-3.742-1.601c-1.123,0.906-2.084,2.241-2.084,4.109c0,3.31,3.582,6.086,9.996,6.086
			c6.842,0,11.493-3.309,11.493-8.434C127.209,26.681,119.512,24.866,114.968,22.73z M155.645,25.72
			c0-9.342-2.406-11.958-8.232-11.958c-5.613,0-8.125,5.551-9.194,8.22l-0.588-0.32c0.802-1.441,1.443-3.737,1.443-6.726V3.964
			c0-0.641-0.213-0.908-0.694-0.908h-9.644v2.646c1.069,0.32,2.459,0.587,3.421,0.747v33.523c0,0.747,0.213,1.015,0.801,0.962h6.116
			V27.482c0-4.058,1.818-8.916,5.131-8.916c3.208,0,3.902,2.562,3.902,9.021v11.743c0,1.336,0.107,1.604,0.801,1.604h10.157v-3.203
			c-0.963-0.374-2.246-0.534-3.421-0.747V25.72z M169.507,14.518h-9.387v3.194c1.229,0.321,2.458,0.588,3.421,0.748v21.564
			c0,0.642,0.161,0.962,0.802,0.909h5.805V15.533C170.148,14.732,169.989,14.518,169.507,14.518z M166.492,2.927
			c-2.78,0-4.651,0.907-4.651,3.522c0,2.616,1.871,3.523,4.651,3.523c2.672,0,4.598-0.908,4.598-3.523
			C171.089,3.834,169.164,2.927,166.492,2.927z M198.347,23.157V22.57c4.33-0.534,8.34-2.408,8.34-7.427
			c0-5.131-2.968-7.793-10.056-8.531V1.015c0-0.801-0.161-1.015-0.642-1.015c0,0-2.139,0-3.709,0v6.007
			c0,0.148,0.012,0.274,0.032,0.388c-0.111,0-0.214-0.005-0.327-0.005h-3.107c0.021-0.112,0.032-0.236,0.032-0.382V0
			c-1.57,0-3.296,0-3.296,0c-0.482,0-0.643,0.214-0.643,1.015V6.39h-8.379v2.782c1.122,0.374,1.978,0.535,3.421,0.748v29.199
			c0,1.281,0.055,1.815,0.803,1.815c1.468,0,2.79,0.024,4.156,0.055v4.74c0,0.641,0.16,0.96,0.802,0.907h3.136v-5.29
			c0-0.112-0.012-0.188-0.019-0.279c1.028,0.016,2.146,0.025,3.405,0.026c-0.006,0.084-0.017,0.15-0.017,0.253v5.29h3.549
			c0.641,0.053,0.802-0.267,0.802-0.907v-4.866c8.068-0.899,12.3-4.47,12.3-10.019C208.931,25.293,203.959,23.318,198.347,23.157z
			 M187.123,10.293c0.695-0.214,2.727-0.32,4.169-0.32c4.864,0,7.216,1.548,7.216,5.178c0,4.003-2.618,6.085-7.376,6.085
			c-1.016,0-2.619,0-4.009-0.053V10.293z M191.88,36.663c-2.566,0-4.062-0.16-4.758-0.215V25.239c1.55-0.107,3.741-0.107,4.49-0.107
			c4.971,0,8.713,1.068,8.713,5.231C200.326,34.474,197.333,36.663,191.88,36.663z M224.108,13.442
			c-9.46,0-13.201,5.926-13.201,14.573c0,8.433,4.062,13.719,13.63,13.719c8.713,0,12.829-6.033,10.21-10.836l-4.17,0.535
			c0.374,4.163-1.977,6.993-5.719,6.993c-4.973,0-6.04-3.898-6.04-9.93h16.196C238.06,20.969,234.425,13.442,224.108,13.442z
			 M228.385,25.613l-9.462,0.213c-0.053-4.003,0.804-9.021,5.185-9.021C227.905,16.805,229.08,21.022,228.385,25.613z
			 M255.002,31.486l-2.139,0.479c0.641,2.776,0,5.766-2.62,5.766c-2.619,0-2.663-2.936-2.663-6.513V18.354
			c2.191-0.054,5.176-0.214,7.475-0.535v-3.301h-7.475V9.163c0-0.907-0.437-1.121-0.918-1.121h-5.504v6.477h-4.996v3.301
			c1.071,0.214,4.034,0.427,4.996,0.535V32.5c0,5.071,0.533,8.967,7.268,8.967c4.812,0,7.644-2.615,7.644-6.513
			C256.07,33.567,255.643,32.392,255.002,31.486z"/>
	</g>
</g>
</svg>
